%TF.GenerationSoftware,KiCad,Pcbnew,(5.1.9)-1*%
%TF.CreationDate,2021-08-13T00:41:12+01:00*%
%TF.ProjectId,heli-servo-board,68656c69-2d73-4657-9276-6f2d626f6172,rev?*%
%TF.SameCoordinates,Original*%
%TF.FileFunction,Copper,L1,Top*%
%TF.FilePolarity,Positive*%
%FSLAX46Y46*%
G04 Gerber Fmt 4.6, Leading zero omitted, Abs format (unit mm)*
G04 Created by KiCad (PCBNEW (5.1.9)-1) date 2021-08-13 00:41:12*
%MOMM*%
%LPD*%
G01*
G04 APERTURE LIST*
%TA.AperFunction,ComponentPad*%
%ADD10O,1.750000X1.200000*%
%TD*%
%TA.AperFunction,ComponentPad*%
%ADD11O,1.300000X0.800000*%
%TD*%
%TA.AperFunction,ComponentPad*%
%ADD12O,2.000000X1.700000*%
%TD*%
%TA.AperFunction,Conductor*%
%ADD13C,0.600000*%
%TD*%
%TA.AperFunction,Conductor*%
%ADD14C,0.254000*%
%TD*%
%TA.AperFunction,Conductor*%
%ADD15C,0.100000*%
%TD*%
G04 APERTURE END LIST*
D10*
%TO.P,REF\u002A\u002A,2*%
%TO.N,+BATT*%
X162433000Y-153511000D03*
%TO.P,REF\u002A\u002A,1*%
%TO.N,GND*%
%TA.AperFunction,ComponentPad*%
G36*
G01*
X161807600Y-150911000D02*
X163058400Y-150911000D01*
G75*
G02*
X163308000Y-151160600I0J-249600D01*
G01*
X163308000Y-151861400D01*
G75*
G02*
X163058400Y-152111000I-249600J0D01*
G01*
X161807600Y-152111000D01*
G75*
G02*
X161558000Y-151861400I0J249600D01*
G01*
X161558000Y-151160600D01*
G75*
G02*
X161807600Y-150911000I249600J0D01*
G01*
G37*
%TD.AperFunction*%
%TD*%
D11*
%TO.P,J1,3*%
%TO.N,Net-(J1-Pad3)*%
X175895000Y-154980000D03*
%TO.P,J1,2*%
%TO.N,Net-(J1-Pad2)*%
X175895000Y-156230000D03*
%TO.P,J1,1*%
%TO.N,Net-(J1-Pad1)*%
%TA.AperFunction,ComponentPad*%
G36*
G01*
X176345000Y-157880000D02*
X175445000Y-157880000D01*
G75*
G02*
X175245000Y-157680000I0J200000D01*
G01*
X175245000Y-157280000D01*
G75*
G02*
X175445000Y-157080000I200000J0D01*
G01*
X176345000Y-157080000D01*
G75*
G02*
X176545000Y-157280000I0J-200000D01*
G01*
X176545000Y-157680000D01*
G75*
G02*
X176345000Y-157880000I-200000J0D01*
G01*
G37*
%TD.AperFunction*%
%TD*%
%TO.P,J4,3*%
%TO.N,Net-(J1-Pad1)*%
X171450000Y-158917000D03*
%TO.P,J4,2*%
%TO.N,+BATT*%
X171450000Y-160167000D03*
%TO.P,J4,1*%
%TO.N,GND*%
%TA.AperFunction,ComponentPad*%
G36*
G01*
X171900000Y-161817000D02*
X171000000Y-161817000D01*
G75*
G02*
X170800000Y-161617000I0J200000D01*
G01*
X170800000Y-161217000D01*
G75*
G02*
X171000000Y-161017000I200000J0D01*
G01*
X171900000Y-161017000D01*
G75*
G02*
X172100000Y-161217000I0J-200000D01*
G01*
X172100000Y-161617000D01*
G75*
G02*
X171900000Y-161817000I-200000J0D01*
G01*
G37*
%TD.AperFunction*%
%TD*%
%TO.P,J3,3*%
%TO.N,Net-(J1-Pad2)*%
X167894000Y-158917000D03*
%TO.P,J3,2*%
%TO.N,+BATT*%
X167894000Y-160167000D03*
%TO.P,J3,1*%
%TO.N,GND*%
%TA.AperFunction,ComponentPad*%
G36*
G01*
X168344000Y-161817000D02*
X167444000Y-161817000D01*
G75*
G02*
X167244000Y-161617000I0J200000D01*
G01*
X167244000Y-161217000D01*
G75*
G02*
X167444000Y-161017000I200000J0D01*
G01*
X168344000Y-161017000D01*
G75*
G02*
X168544000Y-161217000I0J-200000D01*
G01*
X168544000Y-161617000D01*
G75*
G02*
X168344000Y-161817000I-200000J0D01*
G01*
G37*
%TD.AperFunction*%
%TD*%
%TO.P,J2,3*%
%TO.N,Net-(J1-Pad3)*%
X164338000Y-158917000D03*
%TO.P,J2,2*%
%TO.N,+BATT*%
X164338000Y-160167000D03*
%TO.P,J2,1*%
%TO.N,GND*%
%TA.AperFunction,ComponentPad*%
G36*
G01*
X164788000Y-161817000D02*
X163888000Y-161817000D01*
G75*
G02*
X163688000Y-161617000I0J200000D01*
G01*
X163688000Y-161217000D01*
G75*
G02*
X163888000Y-161017000I200000J0D01*
G01*
X164788000Y-161017000D01*
G75*
G02*
X164988000Y-161217000I0J-200000D01*
G01*
X164988000Y-161617000D01*
G75*
G02*
X164788000Y-161817000I-200000J0D01*
G01*
G37*
%TD.AperFunction*%
%TD*%
D12*
%TO.P,J6,2*%
%TO.N,+BATT*%
X169164000Y-153797000D03*
%TO.P,J6,1*%
%TO.N,GND*%
%TA.AperFunction,ComponentPad*%
G36*
G01*
X168414000Y-150447000D02*
X169914000Y-150447000D01*
G75*
G02*
X170164000Y-150697000I0J-250000D01*
G01*
X170164000Y-151897000D01*
G75*
G02*
X169914000Y-152147000I-250000J0D01*
G01*
X168414000Y-152147000D01*
G75*
G02*
X168164000Y-151897000I0J250000D01*
G01*
X168164000Y-150697000D01*
G75*
G02*
X168414000Y-150447000I250000J0D01*
G01*
G37*
%TD.AperFunction*%
%TD*%
%TO.P,J9,1*%
%TO.N,Net-(J1-Pad1)*%
%TA.AperFunction,SMDPad,CuDef*%
G36*
G01*
X172572000Y-156314000D02*
X174072000Y-156314000D01*
G75*
G02*
X174322000Y-156564000I0J-250000D01*
G01*
X174322000Y-157064000D01*
G75*
G02*
X174072000Y-157314000I-250000J0D01*
G01*
X172572000Y-157314000D01*
G75*
G02*
X172322000Y-157064000I0J250000D01*
G01*
X172322000Y-156564000D01*
G75*
G02*
X172572000Y-156314000I250000J0D01*
G01*
G37*
%TD.AperFunction*%
%TD*%
%TO.P,J8,1*%
%TO.N,Net-(J1-Pad2)*%
%TA.AperFunction,SMDPad,CuDef*%
G36*
G01*
X172572000Y-154409000D02*
X174072000Y-154409000D01*
G75*
G02*
X174322000Y-154659000I0J-250000D01*
G01*
X174322000Y-155159000D01*
G75*
G02*
X174072000Y-155409000I-250000J0D01*
G01*
X172572000Y-155409000D01*
G75*
G02*
X172322000Y-155159000I0J250000D01*
G01*
X172322000Y-154659000D01*
G75*
G02*
X172572000Y-154409000I250000J0D01*
G01*
G37*
%TD.AperFunction*%
%TD*%
%TO.P,J7,1*%
%TO.N,Net-(J1-Pad3)*%
%TA.AperFunction,SMDPad,CuDef*%
G36*
G01*
X172572000Y-152377000D02*
X174072000Y-152377000D01*
G75*
G02*
X174322000Y-152627000I0J-250000D01*
G01*
X174322000Y-153127000D01*
G75*
G02*
X174072000Y-153377000I-250000J0D01*
G01*
X172572000Y-153377000D01*
G75*
G02*
X172322000Y-153127000I0J250000D01*
G01*
X172322000Y-152627000D01*
G75*
G02*
X172572000Y-152377000I250000J0D01*
G01*
G37*
%TD.AperFunction*%
%TD*%
D13*
%TO.N,Net-(J1-Pad3)*%
X173792000Y-152877000D02*
X173322000Y-152877000D01*
X170434000Y-156464000D02*
X168824194Y-156464000D01*
X168824194Y-156464000D02*
X166371194Y-158917000D01*
X166371194Y-158917000D02*
X164338000Y-158917000D01*
X171021982Y-155921956D02*
X170976044Y-155921956D01*
X170976044Y-155921956D02*
X170434000Y-156464000D01*
X173322000Y-152877000D02*
X172322000Y-152877000D01*
X171851000Y-153436000D02*
X171807000Y-153392000D01*
X171807000Y-153392000D02*
X171021982Y-154177018D01*
X172322000Y-152877000D02*
X171807000Y-153392000D01*
X175895000Y-154980000D02*
X174351000Y-153436000D01*
X174351000Y-153436000D02*
X173792000Y-152877000D01*
X172446000Y-153436000D02*
X171021982Y-154860018D01*
X172827000Y-153436000D02*
X172446000Y-153436000D01*
X171021982Y-154860018D02*
X171021982Y-155921956D01*
X171021982Y-154177018D02*
X171021982Y-154860018D01*
X174351000Y-153436000D02*
X172827000Y-153436000D01*
X172827000Y-153436000D02*
X171851000Y-153436000D01*
%TO.N,Net-(J1-Pad2)*%
X173477678Y-154909000D02*
X173322000Y-154909000D01*
X175895000Y-156230000D02*
X174798678Y-156230000D01*
X169927194Y-158917000D02*
X167894000Y-158917000D01*
X173322000Y-154909000D02*
X172322000Y-154909000D01*
X172322000Y-154909000D02*
X171821990Y-155409010D01*
X171821990Y-157022204D02*
X169927194Y-158917000D01*
X171911141Y-155498161D02*
X171821990Y-155409010D01*
X174798678Y-156230000D02*
X174066839Y-155498161D01*
X174066839Y-155498161D02*
X173477678Y-154909000D01*
X172542839Y-155498161D02*
X171821990Y-156219010D01*
X172643161Y-155498161D02*
X172542839Y-155498161D01*
X171821990Y-156219010D02*
X171821990Y-157022204D01*
X171821990Y-155409010D02*
X171821990Y-156219010D01*
X174066839Y-155498161D02*
X172643161Y-155498161D01*
X172643161Y-155498161D02*
X171911141Y-155498161D01*
%TO.N,Net-(J1-Pad1)*%
X173988000Y-157480000D02*
X173322000Y-156814000D01*
X173322000Y-156814000D02*
X173322000Y-157045000D01*
X172887000Y-157480000D02*
X172867000Y-157500000D01*
X174371000Y-157480000D02*
X172887000Y-157480000D01*
X175895000Y-157480000D02*
X174371000Y-157480000D01*
X172867000Y-157500000D02*
X171450000Y-158917000D01*
X173322000Y-157045000D02*
X172867000Y-157500000D01*
X174371000Y-157480000D02*
X173988000Y-157480000D01*
X171450000Y-158525578D02*
X172621998Y-157353580D01*
X171450000Y-158917000D02*
X171450000Y-158525578D01*
%TD*%
D14*
%TO.N,+BATT*%
X167675595Y-150203614D02*
X167593528Y-150357150D01*
X167542992Y-150523746D01*
X167525928Y-150697000D01*
X167525928Y-151897000D01*
X167542992Y-152070254D01*
X167593528Y-152236850D01*
X167675595Y-152390386D01*
X167786038Y-152524962D01*
X167920614Y-152635405D01*
X168074150Y-152717472D01*
X168240746Y-152768008D01*
X168414000Y-152785072D01*
X169914000Y-152785072D01*
X170087254Y-152768008D01*
X170253850Y-152717472D01*
X170407386Y-152635405D01*
X170541962Y-152524962D01*
X170652405Y-152390386D01*
X170734472Y-152236850D01*
X170785008Y-152070254D01*
X170802072Y-151897000D01*
X170802072Y-150697000D01*
X170785008Y-150523746D01*
X170734472Y-150357150D01*
X170652405Y-150203614D01*
X170589530Y-150127000D01*
X177340000Y-150127000D01*
X177340001Y-160216970D01*
X177054880Y-160026458D01*
X176649592Y-159858582D01*
X176219340Y-159773000D01*
X175780660Y-159773000D01*
X175350408Y-159858582D01*
X174945120Y-160026458D01*
X174580370Y-160270176D01*
X174270176Y-160580370D01*
X174026458Y-160945120D01*
X173858582Y-161350408D01*
X173773000Y-161780660D01*
X173773000Y-162219340D01*
X173858582Y-162649592D01*
X174026458Y-163054880D01*
X174216969Y-163340000D01*
X161783031Y-163340000D01*
X161973542Y-163054880D01*
X162141418Y-162649592D01*
X162227000Y-162219340D01*
X162227000Y-161780660D01*
X162141418Y-161350408D01*
X162086159Y-161217000D01*
X163049928Y-161217000D01*
X163049928Y-161617000D01*
X163066031Y-161780500D01*
X163113722Y-161937716D01*
X163191169Y-162082608D01*
X163295394Y-162209606D01*
X163422392Y-162313831D01*
X163567284Y-162391278D01*
X163724500Y-162438969D01*
X163888000Y-162455072D01*
X164788000Y-162455072D01*
X164951500Y-162438969D01*
X165108716Y-162391278D01*
X165253608Y-162313831D01*
X165380606Y-162209606D01*
X165484831Y-162082608D01*
X165562278Y-161937716D01*
X165609969Y-161780500D01*
X165626072Y-161617000D01*
X165626072Y-161217000D01*
X166605928Y-161217000D01*
X166605928Y-161617000D01*
X166622031Y-161780500D01*
X166669722Y-161937716D01*
X166747169Y-162082608D01*
X166851394Y-162209606D01*
X166978392Y-162313831D01*
X167123284Y-162391278D01*
X167280500Y-162438969D01*
X167444000Y-162455072D01*
X168344000Y-162455072D01*
X168507500Y-162438969D01*
X168664716Y-162391278D01*
X168809608Y-162313831D01*
X168936606Y-162209606D01*
X169040831Y-162082608D01*
X169118278Y-161937716D01*
X169165969Y-161780500D01*
X169182072Y-161617000D01*
X169182072Y-161217000D01*
X170161928Y-161217000D01*
X170161928Y-161617000D01*
X170178031Y-161780500D01*
X170225722Y-161937716D01*
X170303169Y-162082608D01*
X170407394Y-162209606D01*
X170534392Y-162313831D01*
X170679284Y-162391278D01*
X170836500Y-162438969D01*
X171000000Y-162455072D01*
X171900000Y-162455072D01*
X172063500Y-162438969D01*
X172220716Y-162391278D01*
X172365608Y-162313831D01*
X172492606Y-162209606D01*
X172596831Y-162082608D01*
X172674278Y-161937716D01*
X172721969Y-161780500D01*
X172738072Y-161617000D01*
X172738072Y-161217000D01*
X172721969Y-161053500D01*
X172674278Y-160896284D01*
X172596831Y-160751392D01*
X172492606Y-160624394D01*
X172365608Y-160520169D01*
X172220716Y-160442722D01*
X172063500Y-160395031D01*
X171900000Y-160378928D01*
X171000000Y-160378928D01*
X170836500Y-160395031D01*
X170679284Y-160442722D01*
X170534392Y-160520169D01*
X170407394Y-160624394D01*
X170303169Y-160751392D01*
X170225722Y-160896284D01*
X170178031Y-161053500D01*
X170161928Y-161217000D01*
X169182072Y-161217000D01*
X169165969Y-161053500D01*
X169118278Y-160896284D01*
X169040831Y-160751392D01*
X168936606Y-160624394D01*
X168809608Y-160520169D01*
X168664716Y-160442722D01*
X168507500Y-160395031D01*
X168344000Y-160378928D01*
X167444000Y-160378928D01*
X167280500Y-160395031D01*
X167123284Y-160442722D01*
X166978392Y-160520169D01*
X166851394Y-160624394D01*
X166747169Y-160751392D01*
X166669722Y-160896284D01*
X166622031Y-161053500D01*
X166605928Y-161217000D01*
X165626072Y-161217000D01*
X165609969Y-161053500D01*
X165562278Y-160896284D01*
X165484831Y-160751392D01*
X165380606Y-160624394D01*
X165253608Y-160520169D01*
X165108716Y-160442722D01*
X164951500Y-160395031D01*
X164788000Y-160378928D01*
X163888000Y-160378928D01*
X163724500Y-160395031D01*
X163567284Y-160442722D01*
X163422392Y-160520169D01*
X163295394Y-160624394D01*
X163191169Y-160751392D01*
X163113722Y-160896284D01*
X163066031Y-161053500D01*
X163049928Y-161217000D01*
X162086159Y-161217000D01*
X161973542Y-160945120D01*
X161729824Y-160580370D01*
X161419630Y-160270176D01*
X161054880Y-160026458D01*
X160649592Y-159858582D01*
X160219340Y-159773000D01*
X159780660Y-159773000D01*
X159350408Y-159858582D01*
X158945120Y-160026458D01*
X158660000Y-160216969D01*
X158660000Y-158917000D01*
X163047993Y-158917000D01*
X163067976Y-159119895D01*
X163127159Y-159314993D01*
X163223266Y-159494797D01*
X163352604Y-159652396D01*
X163510203Y-159781734D01*
X163690007Y-159877841D01*
X163885105Y-159937024D01*
X164037162Y-159952000D01*
X164638838Y-159952000D01*
X164790895Y-159937024D01*
X164985993Y-159877841D01*
X165034338Y-159852000D01*
X166325262Y-159852000D01*
X166371194Y-159856524D01*
X166417126Y-159852000D01*
X166554486Y-159838471D01*
X166730734Y-159785007D01*
X166893166Y-159698186D01*
X166928783Y-159668956D01*
X167066203Y-159781734D01*
X167246007Y-159877841D01*
X167441105Y-159937024D01*
X167593162Y-159952000D01*
X168194838Y-159952000D01*
X168346895Y-159937024D01*
X168541993Y-159877841D01*
X168590338Y-159852000D01*
X169881262Y-159852000D01*
X169927194Y-159856524D01*
X169973126Y-159852000D01*
X170110486Y-159838471D01*
X170286734Y-159785007D01*
X170449166Y-159698186D01*
X170484783Y-159668956D01*
X170622203Y-159781734D01*
X170802007Y-159877841D01*
X170997105Y-159937024D01*
X171149162Y-159952000D01*
X171750838Y-159952000D01*
X171902895Y-159937024D01*
X172097993Y-159877841D01*
X172277797Y-159781734D01*
X172435396Y-159652396D01*
X172564734Y-159494797D01*
X172660841Y-159314993D01*
X172720024Y-159119895D01*
X172736480Y-158952809D01*
X173274289Y-158415000D01*
X173942067Y-158415000D01*
X173987999Y-158419524D01*
X174033931Y-158415000D01*
X175050801Y-158415000D01*
X175124284Y-158454278D01*
X175281500Y-158501969D01*
X175445000Y-158518072D01*
X176345000Y-158518072D01*
X176508500Y-158501969D01*
X176665716Y-158454278D01*
X176810608Y-158376831D01*
X176937606Y-158272606D01*
X177041831Y-158145608D01*
X177119278Y-158000716D01*
X177166969Y-157843500D01*
X177183072Y-157680000D01*
X177183072Y-157280000D01*
X177166969Y-157116500D01*
X177119278Y-156959284D01*
X177041831Y-156814392D01*
X177020259Y-156788106D01*
X177105841Y-156627993D01*
X177165024Y-156432895D01*
X177185007Y-156230000D01*
X177165024Y-156027105D01*
X177105841Y-155832007D01*
X177009734Y-155652203D01*
X176970996Y-155605000D01*
X177009734Y-155557797D01*
X177105841Y-155377993D01*
X177165024Y-155182895D01*
X177185007Y-154980000D01*
X177165024Y-154777105D01*
X177105841Y-154582007D01*
X177009734Y-154402203D01*
X176880396Y-154244604D01*
X176722797Y-154115266D01*
X176542993Y-154019159D01*
X176347895Y-153959976D01*
X176195838Y-153945000D01*
X176182289Y-153945000D01*
X175044630Y-152807341D01*
X175015344Y-152771656D01*
X174979659Y-152742370D01*
X174960072Y-152722783D01*
X174960072Y-152627000D01*
X174943008Y-152453746D01*
X174892472Y-152287150D01*
X174810405Y-152133614D01*
X174699962Y-151999038D01*
X174565386Y-151888595D01*
X174411850Y-151806528D01*
X174245254Y-151755992D01*
X174072000Y-151738928D01*
X172572000Y-151738928D01*
X172398746Y-151755992D01*
X172232150Y-151806528D01*
X172078614Y-151888595D01*
X171944038Y-151999038D01*
X171915088Y-152034313D01*
X171800028Y-152095814D01*
X171657656Y-152212656D01*
X171628370Y-152248341D01*
X171178339Y-152698372D01*
X171178333Y-152698377D01*
X171178325Y-152698385D01*
X171142657Y-152727657D01*
X171113384Y-152763326D01*
X170393323Y-153483388D01*
X170357638Y-153512674D01*
X170240796Y-153655047D01*
X170153975Y-153817479D01*
X170106495Y-153974000D01*
X170100511Y-153993727D01*
X170082458Y-154177018D01*
X170086982Y-154222950D01*
X170086982Y-154814086D01*
X170082458Y-154860018D01*
X170086982Y-154905950D01*
X170086983Y-155488729D01*
X170046712Y-155529000D01*
X168870126Y-155529000D01*
X168824194Y-155524476D01*
X168778262Y-155529000D01*
X168640902Y-155542529D01*
X168464654Y-155595993D01*
X168302222Y-155682814D01*
X168159850Y-155799656D01*
X168130564Y-155835341D01*
X165983905Y-157982000D01*
X165034338Y-157982000D01*
X164985993Y-157956159D01*
X164790895Y-157896976D01*
X164638838Y-157882000D01*
X164037162Y-157882000D01*
X163885105Y-157896976D01*
X163690007Y-157956159D01*
X163510203Y-158052266D01*
X163352604Y-158181604D01*
X163223266Y-158339203D01*
X163127159Y-158519007D01*
X163067976Y-158714105D01*
X163047993Y-158917000D01*
X158660000Y-158917000D01*
X158660000Y-151160600D01*
X160919928Y-151160600D01*
X160919928Y-151861400D01*
X160936984Y-152034576D01*
X160987498Y-152201097D01*
X161069528Y-152354564D01*
X161179921Y-152489079D01*
X161314436Y-152599472D01*
X161467903Y-152681502D01*
X161634424Y-152732016D01*
X161807600Y-152749072D01*
X163058400Y-152749072D01*
X163231576Y-152732016D01*
X163398097Y-152681502D01*
X163551564Y-152599472D01*
X163686079Y-152489079D01*
X163796472Y-152354564D01*
X163878502Y-152201097D01*
X163929016Y-152034576D01*
X163946072Y-151861400D01*
X163946072Y-151160600D01*
X163929016Y-150987424D01*
X163878502Y-150820903D01*
X163796472Y-150667436D01*
X163686079Y-150532921D01*
X163551564Y-150422528D01*
X163398097Y-150340498D01*
X163231576Y-150289984D01*
X163058400Y-150272928D01*
X161807600Y-150272928D01*
X161634424Y-150289984D01*
X161467903Y-150340498D01*
X161314436Y-150422528D01*
X161179921Y-150532921D01*
X161069528Y-150667436D01*
X160987498Y-150820903D01*
X160936984Y-150987424D01*
X160919928Y-151160600D01*
X158660000Y-151160600D01*
X158660000Y-150127000D01*
X167738470Y-150127000D01*
X167675595Y-150203614D01*
%TA.AperFunction,Conductor*%
D15*
G36*
X167675595Y-150203614D02*
G01*
X167593528Y-150357150D01*
X167542992Y-150523746D01*
X167525928Y-150697000D01*
X167525928Y-151897000D01*
X167542992Y-152070254D01*
X167593528Y-152236850D01*
X167675595Y-152390386D01*
X167786038Y-152524962D01*
X167920614Y-152635405D01*
X168074150Y-152717472D01*
X168240746Y-152768008D01*
X168414000Y-152785072D01*
X169914000Y-152785072D01*
X170087254Y-152768008D01*
X170253850Y-152717472D01*
X170407386Y-152635405D01*
X170541962Y-152524962D01*
X170652405Y-152390386D01*
X170734472Y-152236850D01*
X170785008Y-152070254D01*
X170802072Y-151897000D01*
X170802072Y-150697000D01*
X170785008Y-150523746D01*
X170734472Y-150357150D01*
X170652405Y-150203614D01*
X170589530Y-150127000D01*
X177340000Y-150127000D01*
X177340001Y-160216970D01*
X177054880Y-160026458D01*
X176649592Y-159858582D01*
X176219340Y-159773000D01*
X175780660Y-159773000D01*
X175350408Y-159858582D01*
X174945120Y-160026458D01*
X174580370Y-160270176D01*
X174270176Y-160580370D01*
X174026458Y-160945120D01*
X173858582Y-161350408D01*
X173773000Y-161780660D01*
X173773000Y-162219340D01*
X173858582Y-162649592D01*
X174026458Y-163054880D01*
X174216969Y-163340000D01*
X161783031Y-163340000D01*
X161973542Y-163054880D01*
X162141418Y-162649592D01*
X162227000Y-162219340D01*
X162227000Y-161780660D01*
X162141418Y-161350408D01*
X162086159Y-161217000D01*
X163049928Y-161217000D01*
X163049928Y-161617000D01*
X163066031Y-161780500D01*
X163113722Y-161937716D01*
X163191169Y-162082608D01*
X163295394Y-162209606D01*
X163422392Y-162313831D01*
X163567284Y-162391278D01*
X163724500Y-162438969D01*
X163888000Y-162455072D01*
X164788000Y-162455072D01*
X164951500Y-162438969D01*
X165108716Y-162391278D01*
X165253608Y-162313831D01*
X165380606Y-162209606D01*
X165484831Y-162082608D01*
X165562278Y-161937716D01*
X165609969Y-161780500D01*
X165626072Y-161617000D01*
X165626072Y-161217000D01*
X166605928Y-161217000D01*
X166605928Y-161617000D01*
X166622031Y-161780500D01*
X166669722Y-161937716D01*
X166747169Y-162082608D01*
X166851394Y-162209606D01*
X166978392Y-162313831D01*
X167123284Y-162391278D01*
X167280500Y-162438969D01*
X167444000Y-162455072D01*
X168344000Y-162455072D01*
X168507500Y-162438969D01*
X168664716Y-162391278D01*
X168809608Y-162313831D01*
X168936606Y-162209606D01*
X169040831Y-162082608D01*
X169118278Y-161937716D01*
X169165969Y-161780500D01*
X169182072Y-161617000D01*
X169182072Y-161217000D01*
X170161928Y-161217000D01*
X170161928Y-161617000D01*
X170178031Y-161780500D01*
X170225722Y-161937716D01*
X170303169Y-162082608D01*
X170407394Y-162209606D01*
X170534392Y-162313831D01*
X170679284Y-162391278D01*
X170836500Y-162438969D01*
X171000000Y-162455072D01*
X171900000Y-162455072D01*
X172063500Y-162438969D01*
X172220716Y-162391278D01*
X172365608Y-162313831D01*
X172492606Y-162209606D01*
X172596831Y-162082608D01*
X172674278Y-161937716D01*
X172721969Y-161780500D01*
X172738072Y-161617000D01*
X172738072Y-161217000D01*
X172721969Y-161053500D01*
X172674278Y-160896284D01*
X172596831Y-160751392D01*
X172492606Y-160624394D01*
X172365608Y-160520169D01*
X172220716Y-160442722D01*
X172063500Y-160395031D01*
X171900000Y-160378928D01*
X171000000Y-160378928D01*
X170836500Y-160395031D01*
X170679284Y-160442722D01*
X170534392Y-160520169D01*
X170407394Y-160624394D01*
X170303169Y-160751392D01*
X170225722Y-160896284D01*
X170178031Y-161053500D01*
X170161928Y-161217000D01*
X169182072Y-161217000D01*
X169165969Y-161053500D01*
X169118278Y-160896284D01*
X169040831Y-160751392D01*
X168936606Y-160624394D01*
X168809608Y-160520169D01*
X168664716Y-160442722D01*
X168507500Y-160395031D01*
X168344000Y-160378928D01*
X167444000Y-160378928D01*
X167280500Y-160395031D01*
X167123284Y-160442722D01*
X166978392Y-160520169D01*
X166851394Y-160624394D01*
X166747169Y-160751392D01*
X166669722Y-160896284D01*
X166622031Y-161053500D01*
X166605928Y-161217000D01*
X165626072Y-161217000D01*
X165609969Y-161053500D01*
X165562278Y-160896284D01*
X165484831Y-160751392D01*
X165380606Y-160624394D01*
X165253608Y-160520169D01*
X165108716Y-160442722D01*
X164951500Y-160395031D01*
X164788000Y-160378928D01*
X163888000Y-160378928D01*
X163724500Y-160395031D01*
X163567284Y-160442722D01*
X163422392Y-160520169D01*
X163295394Y-160624394D01*
X163191169Y-160751392D01*
X163113722Y-160896284D01*
X163066031Y-161053500D01*
X163049928Y-161217000D01*
X162086159Y-161217000D01*
X161973542Y-160945120D01*
X161729824Y-160580370D01*
X161419630Y-160270176D01*
X161054880Y-160026458D01*
X160649592Y-159858582D01*
X160219340Y-159773000D01*
X159780660Y-159773000D01*
X159350408Y-159858582D01*
X158945120Y-160026458D01*
X158660000Y-160216969D01*
X158660000Y-158917000D01*
X163047993Y-158917000D01*
X163067976Y-159119895D01*
X163127159Y-159314993D01*
X163223266Y-159494797D01*
X163352604Y-159652396D01*
X163510203Y-159781734D01*
X163690007Y-159877841D01*
X163885105Y-159937024D01*
X164037162Y-159952000D01*
X164638838Y-159952000D01*
X164790895Y-159937024D01*
X164985993Y-159877841D01*
X165034338Y-159852000D01*
X166325262Y-159852000D01*
X166371194Y-159856524D01*
X166417126Y-159852000D01*
X166554486Y-159838471D01*
X166730734Y-159785007D01*
X166893166Y-159698186D01*
X166928783Y-159668956D01*
X167066203Y-159781734D01*
X167246007Y-159877841D01*
X167441105Y-159937024D01*
X167593162Y-159952000D01*
X168194838Y-159952000D01*
X168346895Y-159937024D01*
X168541993Y-159877841D01*
X168590338Y-159852000D01*
X169881262Y-159852000D01*
X169927194Y-159856524D01*
X169973126Y-159852000D01*
X170110486Y-159838471D01*
X170286734Y-159785007D01*
X170449166Y-159698186D01*
X170484783Y-159668956D01*
X170622203Y-159781734D01*
X170802007Y-159877841D01*
X170997105Y-159937024D01*
X171149162Y-159952000D01*
X171750838Y-159952000D01*
X171902895Y-159937024D01*
X172097993Y-159877841D01*
X172277797Y-159781734D01*
X172435396Y-159652396D01*
X172564734Y-159494797D01*
X172660841Y-159314993D01*
X172720024Y-159119895D01*
X172736480Y-158952809D01*
X173274289Y-158415000D01*
X173942067Y-158415000D01*
X173987999Y-158419524D01*
X174033931Y-158415000D01*
X175050801Y-158415000D01*
X175124284Y-158454278D01*
X175281500Y-158501969D01*
X175445000Y-158518072D01*
X176345000Y-158518072D01*
X176508500Y-158501969D01*
X176665716Y-158454278D01*
X176810608Y-158376831D01*
X176937606Y-158272606D01*
X177041831Y-158145608D01*
X177119278Y-158000716D01*
X177166969Y-157843500D01*
X177183072Y-157680000D01*
X177183072Y-157280000D01*
X177166969Y-157116500D01*
X177119278Y-156959284D01*
X177041831Y-156814392D01*
X177020259Y-156788106D01*
X177105841Y-156627993D01*
X177165024Y-156432895D01*
X177185007Y-156230000D01*
X177165024Y-156027105D01*
X177105841Y-155832007D01*
X177009734Y-155652203D01*
X176970996Y-155605000D01*
X177009734Y-155557797D01*
X177105841Y-155377993D01*
X177165024Y-155182895D01*
X177185007Y-154980000D01*
X177165024Y-154777105D01*
X177105841Y-154582007D01*
X177009734Y-154402203D01*
X176880396Y-154244604D01*
X176722797Y-154115266D01*
X176542993Y-154019159D01*
X176347895Y-153959976D01*
X176195838Y-153945000D01*
X176182289Y-153945000D01*
X175044630Y-152807341D01*
X175015344Y-152771656D01*
X174979659Y-152742370D01*
X174960072Y-152722783D01*
X174960072Y-152627000D01*
X174943008Y-152453746D01*
X174892472Y-152287150D01*
X174810405Y-152133614D01*
X174699962Y-151999038D01*
X174565386Y-151888595D01*
X174411850Y-151806528D01*
X174245254Y-151755992D01*
X174072000Y-151738928D01*
X172572000Y-151738928D01*
X172398746Y-151755992D01*
X172232150Y-151806528D01*
X172078614Y-151888595D01*
X171944038Y-151999038D01*
X171915088Y-152034313D01*
X171800028Y-152095814D01*
X171657656Y-152212656D01*
X171628370Y-152248341D01*
X171178339Y-152698372D01*
X171178333Y-152698377D01*
X171178325Y-152698385D01*
X171142657Y-152727657D01*
X171113384Y-152763326D01*
X170393323Y-153483388D01*
X170357638Y-153512674D01*
X170240796Y-153655047D01*
X170153975Y-153817479D01*
X170106495Y-153974000D01*
X170100511Y-153993727D01*
X170082458Y-154177018D01*
X170086982Y-154222950D01*
X170086982Y-154814086D01*
X170082458Y-154860018D01*
X170086982Y-154905950D01*
X170086983Y-155488729D01*
X170046712Y-155529000D01*
X168870126Y-155529000D01*
X168824194Y-155524476D01*
X168778262Y-155529000D01*
X168640902Y-155542529D01*
X168464654Y-155595993D01*
X168302222Y-155682814D01*
X168159850Y-155799656D01*
X168130564Y-155835341D01*
X165983905Y-157982000D01*
X165034338Y-157982000D01*
X164985993Y-157956159D01*
X164790895Y-157896976D01*
X164638838Y-157882000D01*
X164037162Y-157882000D01*
X163885105Y-157896976D01*
X163690007Y-157956159D01*
X163510203Y-158052266D01*
X163352604Y-158181604D01*
X163223266Y-158339203D01*
X163127159Y-158519007D01*
X163067976Y-158714105D01*
X163047993Y-158917000D01*
X158660000Y-158917000D01*
X158660000Y-151160600D01*
X160919928Y-151160600D01*
X160919928Y-151861400D01*
X160936984Y-152034576D01*
X160987498Y-152201097D01*
X161069528Y-152354564D01*
X161179921Y-152489079D01*
X161314436Y-152599472D01*
X161467903Y-152681502D01*
X161634424Y-152732016D01*
X161807600Y-152749072D01*
X163058400Y-152749072D01*
X163231576Y-152732016D01*
X163398097Y-152681502D01*
X163551564Y-152599472D01*
X163686079Y-152489079D01*
X163796472Y-152354564D01*
X163878502Y-152201097D01*
X163929016Y-152034576D01*
X163946072Y-151861400D01*
X163946072Y-151160600D01*
X163929016Y-150987424D01*
X163878502Y-150820903D01*
X163796472Y-150667436D01*
X163686079Y-150532921D01*
X163551564Y-150422528D01*
X163398097Y-150340498D01*
X163231576Y-150289984D01*
X163058400Y-150272928D01*
X161807600Y-150272928D01*
X161634424Y-150289984D01*
X161467903Y-150340498D01*
X161314436Y-150422528D01*
X161179921Y-150532921D01*
X161069528Y-150667436D01*
X160987498Y-150820903D01*
X160936984Y-150987424D01*
X160919928Y-151160600D01*
X158660000Y-151160600D01*
X158660000Y-150127000D01*
X167738470Y-150127000D01*
X167675595Y-150203614D01*
G37*
%TD.AperFunction*%
%TD*%
M02*
