%TF.GenerationSoftware,KiCad,Pcbnew,(5.1.9)-1*%
%TF.CreationDate,2021-08-13T08:46:04+01:00*%
%TF.ProjectId,heli-servo-board,68656c69-2d73-4657-9276-6f2d626f6172,rev?*%
%TF.SameCoordinates,Original*%
%TF.FileFunction,Legend,Top*%
%TF.FilePolarity,Positive*%
%FSLAX46Y46*%
G04 Gerber Fmt 4.6, Leading zero omitted, Abs format (unit mm)*
G04 Created by KiCad (PCBNEW (5.1.9)-1) date 2021-08-13 08:46:04*
%MOMM*%
%LPD*%
G01*
G04 APERTURE LIST*
%ADD10C,0.153000*%
%ADD11C,0.120000*%
G04 APERTURE END LIST*
D10*
X177393571Y-155301904D02*
X176936428Y-155301904D01*
X177165000Y-155301904D02*
X177165000Y-154501904D01*
X177088809Y-154616190D01*
X177012619Y-154692380D01*
X176936428Y-154730476D01*
X176898333Y-157168904D02*
X177393571Y-157168904D01*
X177126904Y-157473666D01*
X177241190Y-157473666D01*
X177317380Y-157511761D01*
X177355476Y-157549857D01*
X177393571Y-157626047D01*
X177393571Y-157816523D01*
X177355476Y-157892714D01*
X177317380Y-157930809D01*
X177241190Y-157968904D01*
X177012619Y-157968904D01*
X176936428Y-157930809D01*
X176898333Y-157892714D01*
X176936428Y-155848095D02*
X176974523Y-155810000D01*
X177050714Y-155771904D01*
X177241190Y-155771904D01*
X177317380Y-155810000D01*
X177355476Y-155848095D01*
X177393571Y-155924285D01*
X177393571Y-156000476D01*
X177355476Y-156114761D01*
X176898333Y-156571904D01*
X177393571Y-156571904D01*
X170802333Y-156533904D02*
X171297571Y-156533904D01*
X171030904Y-156838666D01*
X171145190Y-156838666D01*
X171221380Y-156876761D01*
X171259476Y-156914857D01*
X171297571Y-156991047D01*
X171297571Y-157181523D01*
X171259476Y-157257714D01*
X171221380Y-157295809D01*
X171145190Y-157333904D01*
X170916619Y-157333904D01*
X170840428Y-157295809D01*
X170802333Y-157257714D01*
X167284428Y-156610095D02*
X167322523Y-156572000D01*
X167398714Y-156533904D01*
X167589190Y-156533904D01*
X167665380Y-156572000D01*
X167703476Y-156610095D01*
X167741571Y-156686285D01*
X167741571Y-156762476D01*
X167703476Y-156876761D01*
X167246333Y-157333904D01*
X167741571Y-157333904D01*
X164185571Y-157333904D02*
X163728428Y-157333904D01*
X163957000Y-157333904D02*
X163957000Y-156533904D01*
X163880809Y-156648190D01*
X163804619Y-156724380D01*
X163728428Y-156762476D01*
X174821952Y-159873904D02*
X174821952Y-159073904D01*
X175202904Y-159873904D02*
X175202904Y-159073904D01*
X175660047Y-159873904D01*
X175660047Y-159073904D01*
X176041000Y-159873904D02*
X176041000Y-159073904D01*
X176345761Y-159073904D01*
X176421952Y-159112000D01*
X176460047Y-159150095D01*
X176498142Y-159226285D01*
X176498142Y-159340571D01*
X176460047Y-159416761D01*
X176421952Y-159454857D01*
X176345761Y-159492952D01*
X176041000Y-159492952D01*
X174485333Y-156406904D02*
X174980571Y-156406904D01*
X174713904Y-156711666D01*
X174828190Y-156711666D01*
X174904380Y-156749761D01*
X174942476Y-156787857D01*
X174980571Y-156864047D01*
X174980571Y-157054523D01*
X174942476Y-157130714D01*
X174904380Y-157168809D01*
X174828190Y-157206904D01*
X174599619Y-157206904D01*
X174523428Y-157168809D01*
X174485333Y-157130714D01*
X174523428Y-154578095D02*
X174561523Y-154540000D01*
X174637714Y-154501904D01*
X174828190Y-154501904D01*
X174904380Y-154540000D01*
X174942476Y-154578095D01*
X174980571Y-154654285D01*
X174980571Y-154730476D01*
X174942476Y-154844761D01*
X174485333Y-155301904D01*
X174980571Y-155301904D01*
X174980571Y-153269904D02*
X174523428Y-153269904D01*
X174752000Y-153269904D02*
X174752000Y-152469904D01*
X174675809Y-152584190D01*
X174599619Y-152660380D01*
X174523428Y-152698476D01*
X170548428Y-153854142D02*
X171157952Y-153854142D01*
X170853190Y-154158904D02*
X170853190Y-153549380D01*
X171919857Y-153358904D02*
X171538904Y-153358904D01*
X171500809Y-153739857D01*
X171538904Y-153701761D01*
X171615095Y-153663666D01*
X171805571Y-153663666D01*
X171881761Y-153701761D01*
X171919857Y-153739857D01*
X171957952Y-153816047D01*
X171957952Y-154006523D01*
X171919857Y-154082714D01*
X171881761Y-154120809D01*
X171805571Y-154158904D01*
X171615095Y-154158904D01*
X171538904Y-154120809D01*
X171500809Y-154082714D01*
X172186523Y-153358904D02*
X172453190Y-154158904D01*
X172719857Y-153358904D01*
X172110476Y-150984000D02*
X172034285Y-150945904D01*
X171920000Y-150945904D01*
X171805714Y-150984000D01*
X171729523Y-151060190D01*
X171691428Y-151136380D01*
X171653333Y-151288761D01*
X171653333Y-151403047D01*
X171691428Y-151555428D01*
X171729523Y-151631619D01*
X171805714Y-151707809D01*
X171920000Y-151745904D01*
X171996190Y-151745904D01*
X172110476Y-151707809D01*
X172148571Y-151669714D01*
X172148571Y-151403047D01*
X171996190Y-151403047D01*
X172491428Y-151745904D02*
X172491428Y-150945904D01*
X172948571Y-151745904D01*
X172948571Y-150945904D01*
X173329523Y-151745904D02*
X173329523Y-150945904D01*
X173520000Y-150945904D01*
X173634285Y-150984000D01*
X173710476Y-151060190D01*
X173748571Y-151136380D01*
X173786666Y-151288761D01*
X173786666Y-151403047D01*
X173748571Y-151555428D01*
X173710476Y-151631619D01*
X173634285Y-151707809D01*
X173520000Y-151745904D01*
X173329523Y-151745904D01*
X161620238Y-161474142D02*
X162229761Y-161474142D01*
X161620238Y-160204142D02*
X162229761Y-160204142D01*
X161925000Y-160508904D02*
X161925000Y-159899380D01*
X162153571Y-159238904D02*
X161696428Y-159238904D01*
X161925000Y-159238904D02*
X161925000Y-158438904D01*
X161848809Y-158553190D01*
X161772619Y-158629380D01*
X161696428Y-158667476D01*
D11*
%TO.C,J1*%
X176645000Y-156230000D02*
X176645000Y-158580000D01*
X176645000Y-158580000D02*
X175895000Y-158580000D01*
X175895000Y-158580000D02*
X175895000Y-158780000D01*
X175895000Y-158780000D02*
X175095000Y-158780000D01*
X175095000Y-158780000D02*
X175095000Y-158580000D01*
X175095000Y-158580000D02*
X174245000Y-158580000D01*
X174245000Y-158580000D02*
X174245000Y-156230000D01*
X176645000Y-156230000D02*
X176645000Y-153880000D01*
X176645000Y-153880000D02*
X175895000Y-153880000D01*
X175895000Y-153880000D02*
X175895000Y-153680000D01*
X175895000Y-153680000D02*
X175095000Y-153680000D01*
X175095000Y-153680000D02*
X175095000Y-153880000D01*
X175095000Y-153880000D02*
X174245000Y-153880000D01*
X174245000Y-153880000D02*
X174245000Y-156230000D01*
%TO.C,J4*%
X172200000Y-160167000D02*
X172200000Y-162517000D01*
X172200000Y-162517000D02*
X171450000Y-162517000D01*
X171450000Y-162517000D02*
X171450000Y-162717000D01*
X171450000Y-162717000D02*
X170650000Y-162717000D01*
X170650000Y-162717000D02*
X170650000Y-162517000D01*
X170650000Y-162517000D02*
X169800000Y-162517000D01*
X169800000Y-162517000D02*
X169800000Y-160167000D01*
X172200000Y-160167000D02*
X172200000Y-157817000D01*
X172200000Y-157817000D02*
X171450000Y-157817000D01*
X171450000Y-157817000D02*
X171450000Y-157617000D01*
X171450000Y-157617000D02*
X170650000Y-157617000D01*
X170650000Y-157617000D02*
X170650000Y-157817000D01*
X170650000Y-157817000D02*
X169800000Y-157817000D01*
X169800000Y-157817000D02*
X169800000Y-160167000D01*
%TO.C,J3*%
X168644000Y-160167000D02*
X168644000Y-162517000D01*
X168644000Y-162517000D02*
X167894000Y-162517000D01*
X167894000Y-162517000D02*
X167894000Y-162717000D01*
X167894000Y-162717000D02*
X167094000Y-162717000D01*
X167094000Y-162717000D02*
X167094000Y-162517000D01*
X167094000Y-162517000D02*
X166244000Y-162517000D01*
X166244000Y-162517000D02*
X166244000Y-160167000D01*
X168644000Y-160167000D02*
X168644000Y-157817000D01*
X168644000Y-157817000D02*
X167894000Y-157817000D01*
X167894000Y-157817000D02*
X167894000Y-157617000D01*
X167894000Y-157617000D02*
X167094000Y-157617000D01*
X167094000Y-157617000D02*
X167094000Y-157817000D01*
X167094000Y-157817000D02*
X166244000Y-157817000D01*
X166244000Y-157817000D02*
X166244000Y-160167000D01*
%TO.C,J2*%
X165088000Y-160167000D02*
X165088000Y-162517000D01*
X165088000Y-162517000D02*
X164338000Y-162517000D01*
X164338000Y-162517000D02*
X164338000Y-162717000D01*
X164338000Y-162717000D02*
X163538000Y-162717000D01*
X163538000Y-162717000D02*
X163538000Y-162517000D01*
X163538000Y-162517000D02*
X162688000Y-162517000D01*
X162688000Y-162517000D02*
X162688000Y-160167000D01*
X165088000Y-160167000D02*
X165088000Y-157817000D01*
X165088000Y-157817000D02*
X164338000Y-157817000D01*
X164338000Y-157817000D02*
X164338000Y-157617000D01*
X164338000Y-157617000D02*
X163538000Y-157617000D01*
X163538000Y-157617000D02*
X163538000Y-157817000D01*
X163538000Y-157817000D02*
X162688000Y-157817000D01*
X162688000Y-157817000D02*
X162688000Y-160167000D01*
%TO.C,J6*%
X171264000Y-151597000D02*
X170664000Y-151297000D01*
X171264000Y-150997000D02*
X171264000Y-151597000D01*
X170664000Y-151297000D02*
X171264000Y-150997000D01*
X165964000Y-154047000D02*
X165964000Y-153547000D01*
X160464000Y-154047000D02*
X165964000Y-154047000D01*
X160464000Y-153547000D02*
X160464000Y-154047000D01*
X165964000Y-153547000D02*
X160464000Y-153547000D01*
X165964000Y-151547000D02*
X165964000Y-151047000D01*
X160464000Y-151547000D02*
X165964000Y-151547000D01*
X160464000Y-151047000D02*
X160464000Y-151547000D01*
X165964000Y-151047000D02*
X160464000Y-151047000D01*
X167074000Y-154937000D02*
X167074000Y-152547000D01*
X171574000Y-154937000D02*
X167074000Y-154937000D01*
X171574000Y-156357000D02*
X171574000Y-154937000D01*
X159854000Y-156357000D02*
X171574000Y-156357000D01*
X159854000Y-152547000D02*
X159854000Y-156357000D01*
X167074000Y-150157000D02*
X167074000Y-152547000D01*
X171574000Y-150157000D02*
X167074000Y-150157000D01*
X171574000Y-148737000D02*
X171574000Y-150157000D01*
X159854000Y-148737000D02*
X171574000Y-148737000D01*
X159854000Y-152547000D02*
X159854000Y-148737000D01*
%TD*%
M02*
