M48
; DRILL file {KiCad (5.1.9)-1} date 08/13/21 00:18:24
; FORMAT={-:-/ absolute / inch / decimal}
; #@! TF.CreationDate,2021-08-13T00:18:24+01:00
; #@! TF.GenerationSoftware,Kicad,Pcbnew,(5.1.9)-1
FMAT,2
INCH
T1C0.0197
T2C0.0295
T3C0.0394
T4C0.0866
%
G90
G05
T1
X6.47Y-6.2566
X6.47Y-6.3058
X6.47Y-6.355
X6.61Y-6.2566
X6.61Y-6.3058
X6.61Y-6.355
X6.75Y-6.2566
X6.75Y-6.3058
X6.75Y-6.355
X6.925Y-6.1016
X6.925Y-6.1508
X6.925Y-6.2
T2
X6.37Y-5.965
X6.37Y-6.0437
T3
X6.635Y-5.9566
X6.635Y-6.055
T4
X6.2992Y-5.5906
X6.2992Y-6.378
X6.9291Y-5.5906
X6.9291Y-6.378
T0
M30
