%TF.GenerationSoftware,KiCad,Pcbnew,(5.1.9)-1*%
%TF.CreationDate,2021-08-12T13:22:24+01:00*%
%TF.ProjectId,heli-servo-board,68656c69-2d73-4657-9276-6f2d626f6172,rev?*%
%TF.SameCoordinates,Original*%
%TF.FileFunction,Copper,L1,Top*%
%TF.FilePolarity,Positive*%
%FSLAX46Y46*%
G04 Gerber Fmt 4.6, Leading zero omitted, Abs format (unit mm)*
G04 Created by KiCad (PCBNEW (5.1.9)-1) date 2021-08-12 13:22:24*
%MOMM*%
%LPD*%
G01*
G04 APERTURE LIST*
%TA.AperFunction,ComponentPad*%
%ADD10O,1.300000X0.800000*%
%TD*%
%TA.AperFunction,ComponentPad*%
%ADD11O,2.000000X1.700000*%
%TD*%
%TA.AperFunction,Conductor*%
%ADD12C,0.600000*%
%TD*%
%TA.AperFunction,Conductor*%
%ADD13C,0.254000*%
%TD*%
%TA.AperFunction,Conductor*%
%ADD14C,0.100000*%
%TD*%
G04 APERTURE END LIST*
D10*
%TO.P,J1,3*%
%TO.N,Net-(J1-Pad3)*%
X176403000Y-158917000D03*
%TO.P,J1,2*%
%TO.N,Net-(J1-Pad2)*%
X176403000Y-160167000D03*
%TO.P,J1,1*%
%TO.N,Net-(J1-Pad1)*%
%TA.AperFunction,ComponentPad*%
G36*
G01*
X176853000Y-161817000D02*
X175953000Y-161817000D01*
G75*
G02*
X175753000Y-161617000I0J200000D01*
G01*
X175753000Y-161217000D01*
G75*
G02*
X175953000Y-161017000I200000J0D01*
G01*
X176853000Y-161017000D01*
G75*
G02*
X177053000Y-161217000I0J-200000D01*
G01*
X177053000Y-161617000D01*
G75*
G02*
X176853000Y-161817000I-200000J0D01*
G01*
G37*
%TD.AperFunction*%
%TD*%
%TO.P,J4,3*%
%TO.N,Net-(J1-Pad1)*%
X171450000Y-158917000D03*
%TO.P,J4,2*%
%TO.N,+BATT*%
X171450000Y-160167000D03*
%TO.P,J4,1*%
%TO.N,GND*%
%TA.AperFunction,ComponentPad*%
G36*
G01*
X171900000Y-161817000D02*
X171000000Y-161817000D01*
G75*
G02*
X170800000Y-161617000I0J200000D01*
G01*
X170800000Y-161217000D01*
G75*
G02*
X171000000Y-161017000I200000J0D01*
G01*
X171900000Y-161017000D01*
G75*
G02*
X172100000Y-161217000I0J-200000D01*
G01*
X172100000Y-161617000D01*
G75*
G02*
X171900000Y-161817000I-200000J0D01*
G01*
G37*
%TD.AperFunction*%
%TD*%
%TO.P,J3,3*%
%TO.N,Net-(J1-Pad2)*%
X167894000Y-158917000D03*
%TO.P,J3,2*%
%TO.N,+BATT*%
X167894000Y-160167000D03*
%TO.P,J3,1*%
%TO.N,GND*%
%TA.AperFunction,ComponentPad*%
G36*
G01*
X168344000Y-161817000D02*
X167444000Y-161817000D01*
G75*
G02*
X167244000Y-161617000I0J200000D01*
G01*
X167244000Y-161217000D01*
G75*
G02*
X167444000Y-161017000I200000J0D01*
G01*
X168344000Y-161017000D01*
G75*
G02*
X168544000Y-161217000I0J-200000D01*
G01*
X168544000Y-161617000D01*
G75*
G02*
X168344000Y-161817000I-200000J0D01*
G01*
G37*
%TD.AperFunction*%
%TD*%
%TO.P,J2,3*%
%TO.N,Net-(J1-Pad3)*%
X164338000Y-158917000D03*
%TO.P,J2,2*%
%TO.N,+BATT*%
X164338000Y-160167000D03*
%TO.P,J2,1*%
%TO.N,GND*%
%TA.AperFunction,ComponentPad*%
G36*
G01*
X164788000Y-161817000D02*
X163888000Y-161817000D01*
G75*
G02*
X163688000Y-161617000I0J200000D01*
G01*
X163688000Y-161217000D01*
G75*
G02*
X163888000Y-161017000I200000J0D01*
G01*
X164788000Y-161017000D01*
G75*
G02*
X164988000Y-161217000I0J-200000D01*
G01*
X164988000Y-161617000D01*
G75*
G02*
X164788000Y-161817000I-200000J0D01*
G01*
G37*
%TD.AperFunction*%
%TD*%
D11*
%TO.P,J6,2*%
%TO.N,+BATT*%
X170000000Y-153797000D03*
%TO.P,J6,1*%
%TO.N,GND*%
%TA.AperFunction,ComponentPad*%
G36*
G01*
X169250000Y-150447000D02*
X170750000Y-150447000D01*
G75*
G02*
X171000000Y-150697000I0J-250000D01*
G01*
X171000000Y-151897000D01*
G75*
G02*
X170750000Y-152147000I-250000J0D01*
G01*
X169250000Y-152147000D01*
G75*
G02*
X169000000Y-151897000I0J250000D01*
G01*
X169000000Y-150697000D01*
G75*
G02*
X169250000Y-150447000I250000J0D01*
G01*
G37*
%TD.AperFunction*%
%TD*%
%TO.P,J9,1*%
%TO.N,Net-(J1-Pad1)*%
%TA.AperFunction,SMDPad,CuDef*%
G36*
G01*
X173621000Y-161552000D02*
X175121000Y-161552000D01*
G75*
G02*
X175371000Y-161802000I0J-250000D01*
G01*
X175371000Y-162302000D01*
G75*
G02*
X175121000Y-162552000I-250000J0D01*
G01*
X173621000Y-162552000D01*
G75*
G02*
X173371000Y-162302000I0J250000D01*
G01*
X173371000Y-161802000D01*
G75*
G02*
X173621000Y-161552000I250000J0D01*
G01*
G37*
%TD.AperFunction*%
%TD*%
%TO.P,J8,1*%
%TO.N,Net-(J1-Pad2)*%
%TA.AperFunction,SMDPad,CuDef*%
G36*
G01*
X173621000Y-159647000D02*
X175121000Y-159647000D01*
G75*
G02*
X175371000Y-159897000I0J-250000D01*
G01*
X175371000Y-160397000D01*
G75*
G02*
X175121000Y-160647000I-250000J0D01*
G01*
X173621000Y-160647000D01*
G75*
G02*
X173371000Y-160397000I0J250000D01*
G01*
X173371000Y-159897000D01*
G75*
G02*
X173621000Y-159647000I250000J0D01*
G01*
G37*
%TD.AperFunction*%
%TD*%
%TO.P,J7,1*%
%TO.N,Net-(J1-Pad3)*%
%TA.AperFunction,SMDPad,CuDef*%
G36*
G01*
X173621000Y-157615000D02*
X175121000Y-157615000D01*
G75*
G02*
X175371000Y-157865000I0J-250000D01*
G01*
X175371000Y-158365000D01*
G75*
G02*
X175121000Y-158615000I-250000J0D01*
G01*
X173621000Y-158615000D01*
G75*
G02*
X173371000Y-158365000I0J250000D01*
G01*
X173371000Y-157865000D01*
G75*
G02*
X173621000Y-157615000I250000J0D01*
G01*
G37*
%TD.AperFunction*%
%TD*%
D12*
%TO.N,Net-(J1-Pad3)*%
X166038020Y-157216980D02*
X164338000Y-158917000D01*
X173472980Y-157216980D02*
X166038020Y-157216980D01*
X174371000Y-158115000D02*
X173472980Y-157216980D01*
X175173000Y-158917000D02*
X174371000Y-158115000D01*
X176403000Y-158917000D02*
X175173000Y-158917000D01*
%TO.N,Net-(J1-Pad2)*%
X168794010Y-158016990D02*
X167894000Y-158917000D01*
X172072796Y-158016990D02*
X168794010Y-158016990D01*
X173170816Y-159115010D02*
X172072796Y-158016990D01*
X173339010Y-159115010D02*
X173170816Y-159115010D01*
X174371000Y-160147000D02*
X173339010Y-159115010D01*
X174391000Y-160167000D02*
X174371000Y-160147000D01*
X176403000Y-160167000D02*
X174391000Y-160167000D01*
%TO.N,Net-(J1-Pad1)*%
X171722806Y-158917000D02*
X171450000Y-158917000D01*
X172600010Y-159794204D02*
X171722806Y-158917000D01*
X172600010Y-160436688D02*
X172600010Y-159794204D01*
X174215322Y-162052000D02*
X172600010Y-160436688D01*
X174371000Y-162052000D02*
X174215322Y-162052000D01*
X175006000Y-161417000D02*
X174371000Y-162052000D01*
X176403000Y-161417000D02*
X175006000Y-161417000D01*
%TD*%
D13*
%TO.N,+BATT*%
X168511595Y-150203614D02*
X168429528Y-150357150D01*
X168378992Y-150523746D01*
X168361928Y-150697000D01*
X168361928Y-151897000D01*
X168378992Y-152070254D01*
X168429528Y-152236850D01*
X168511595Y-152390386D01*
X168622038Y-152524962D01*
X168756614Y-152635405D01*
X168910150Y-152717472D01*
X169076746Y-152768008D01*
X169250000Y-152785072D01*
X170750000Y-152785072D01*
X170923254Y-152768008D01*
X171089850Y-152717472D01*
X171243386Y-152635405D01*
X171377962Y-152524962D01*
X171488405Y-152390386D01*
X171570472Y-152236850D01*
X171621008Y-152070254D01*
X171638072Y-151897000D01*
X171638072Y-150697000D01*
X171621008Y-150523746D01*
X171570472Y-150357150D01*
X171488405Y-150203614D01*
X171425530Y-150127000D01*
X181340000Y-150127000D01*
X181340001Y-160216970D01*
X181054880Y-160026458D01*
X180649592Y-159858582D01*
X180219340Y-159773000D01*
X179780660Y-159773000D01*
X179350408Y-159858582D01*
X178945120Y-160026458D01*
X178580370Y-160270176D01*
X178270176Y-160580370D01*
X178026458Y-160945120D01*
X177858582Y-161350408D01*
X177773000Y-161780660D01*
X177773000Y-162219340D01*
X177858582Y-162649592D01*
X178026458Y-163054880D01*
X178216969Y-163340000D01*
X161783031Y-163340000D01*
X161973542Y-163054880D01*
X162141418Y-162649592D01*
X162227000Y-162219340D01*
X162227000Y-161780660D01*
X162141418Y-161350408D01*
X162086159Y-161217000D01*
X163049928Y-161217000D01*
X163049928Y-161617000D01*
X163066031Y-161780500D01*
X163113722Y-161937716D01*
X163191169Y-162082608D01*
X163295394Y-162209606D01*
X163422392Y-162313831D01*
X163567284Y-162391278D01*
X163724500Y-162438969D01*
X163888000Y-162455072D01*
X164788000Y-162455072D01*
X164951500Y-162438969D01*
X165108716Y-162391278D01*
X165253608Y-162313831D01*
X165380606Y-162209606D01*
X165484831Y-162082608D01*
X165562278Y-161937716D01*
X165609969Y-161780500D01*
X165626072Y-161617000D01*
X165626072Y-161217000D01*
X166605928Y-161217000D01*
X166605928Y-161617000D01*
X166622031Y-161780500D01*
X166669722Y-161937716D01*
X166747169Y-162082608D01*
X166851394Y-162209606D01*
X166978392Y-162313831D01*
X167123284Y-162391278D01*
X167280500Y-162438969D01*
X167444000Y-162455072D01*
X168344000Y-162455072D01*
X168507500Y-162438969D01*
X168664716Y-162391278D01*
X168809608Y-162313831D01*
X168936606Y-162209606D01*
X169040831Y-162082608D01*
X169118278Y-161937716D01*
X169165969Y-161780500D01*
X169182072Y-161617000D01*
X169182072Y-161217000D01*
X169165969Y-161053500D01*
X169118278Y-160896284D01*
X169040831Y-160751392D01*
X168936606Y-160624394D01*
X168809608Y-160520169D01*
X168664716Y-160442722D01*
X168507500Y-160395031D01*
X168344000Y-160378928D01*
X167444000Y-160378928D01*
X167280500Y-160395031D01*
X167123284Y-160442722D01*
X166978392Y-160520169D01*
X166851394Y-160624394D01*
X166747169Y-160751392D01*
X166669722Y-160896284D01*
X166622031Y-161053500D01*
X166605928Y-161217000D01*
X165626072Y-161217000D01*
X165609969Y-161053500D01*
X165562278Y-160896284D01*
X165484831Y-160751392D01*
X165380606Y-160624394D01*
X165253608Y-160520169D01*
X165108716Y-160442722D01*
X164951500Y-160395031D01*
X164788000Y-160378928D01*
X163888000Y-160378928D01*
X163724500Y-160395031D01*
X163567284Y-160442722D01*
X163422392Y-160520169D01*
X163295394Y-160624394D01*
X163191169Y-160751392D01*
X163113722Y-160896284D01*
X163066031Y-161053500D01*
X163049928Y-161217000D01*
X162086159Y-161217000D01*
X161973542Y-160945120D01*
X161729824Y-160580370D01*
X161419630Y-160270176D01*
X161054880Y-160026458D01*
X160649592Y-159858582D01*
X160219340Y-159773000D01*
X159780660Y-159773000D01*
X159350408Y-159858582D01*
X158945120Y-160026458D01*
X158660000Y-160216969D01*
X158660000Y-158917000D01*
X163047993Y-158917000D01*
X163067976Y-159119895D01*
X163127159Y-159314993D01*
X163223266Y-159494797D01*
X163352604Y-159652396D01*
X163510203Y-159781734D01*
X163690007Y-159877841D01*
X163885105Y-159937024D01*
X164037162Y-159952000D01*
X164638838Y-159952000D01*
X164790895Y-159937024D01*
X164985993Y-159877841D01*
X165165797Y-159781734D01*
X165323396Y-159652396D01*
X165452734Y-159494797D01*
X165548841Y-159314993D01*
X165608024Y-159119895D01*
X165624480Y-158952809D01*
X166425310Y-158151980D01*
X166944701Y-158151980D01*
X166908604Y-158181604D01*
X166779266Y-158339203D01*
X166683159Y-158519007D01*
X166623976Y-158714105D01*
X166603993Y-158917000D01*
X166623976Y-159119895D01*
X166683159Y-159314993D01*
X166779266Y-159494797D01*
X166908604Y-159652396D01*
X167066203Y-159781734D01*
X167246007Y-159877841D01*
X167441105Y-159937024D01*
X167593162Y-159952000D01*
X168194838Y-159952000D01*
X168346895Y-159937024D01*
X168541993Y-159877841D01*
X168721797Y-159781734D01*
X168879396Y-159652396D01*
X169008734Y-159494797D01*
X169104841Y-159314993D01*
X169164024Y-159119895D01*
X169180480Y-158952810D01*
X169181300Y-158951990D01*
X170163439Y-158951990D01*
X170179976Y-159119895D01*
X170239159Y-159314993D01*
X170335266Y-159494797D01*
X170464604Y-159652396D01*
X170622203Y-159781734D01*
X170802007Y-159877841D01*
X170997105Y-159937024D01*
X171149162Y-159952000D01*
X171435517Y-159952000D01*
X171665010Y-160181493D01*
X171665010Y-160378928D01*
X171000000Y-160378928D01*
X170836500Y-160395031D01*
X170679284Y-160442722D01*
X170534392Y-160520169D01*
X170407394Y-160624394D01*
X170303169Y-160751392D01*
X170225722Y-160896284D01*
X170178031Y-161053500D01*
X170161928Y-161217000D01*
X170161928Y-161617000D01*
X170178031Y-161780500D01*
X170225722Y-161937716D01*
X170303169Y-162082608D01*
X170407394Y-162209606D01*
X170534392Y-162313831D01*
X170679284Y-162391278D01*
X170836500Y-162438969D01*
X171000000Y-162455072D01*
X171900000Y-162455072D01*
X172063500Y-162438969D01*
X172220716Y-162391278D01*
X172365608Y-162313831D01*
X172492606Y-162209606D01*
X172596831Y-162082608D01*
X172674278Y-161937716D01*
X172698593Y-161857560D01*
X172732928Y-161891895D01*
X172732928Y-162302000D01*
X172749992Y-162475254D01*
X172800528Y-162641850D01*
X172882595Y-162795386D01*
X172993038Y-162929962D01*
X173127614Y-163040405D01*
X173281150Y-163122472D01*
X173447746Y-163173008D01*
X173621000Y-163190072D01*
X175121000Y-163190072D01*
X175294254Y-163173008D01*
X175460850Y-163122472D01*
X175614386Y-163040405D01*
X175748962Y-162929962D01*
X175859405Y-162795386D01*
X175941472Y-162641850D01*
X175992008Y-162475254D01*
X175993996Y-162455072D01*
X176853000Y-162455072D01*
X177016500Y-162438969D01*
X177173716Y-162391278D01*
X177318608Y-162313831D01*
X177445606Y-162209606D01*
X177549831Y-162082608D01*
X177627278Y-161937716D01*
X177674969Y-161780500D01*
X177691072Y-161617000D01*
X177691072Y-161217000D01*
X177674969Y-161053500D01*
X177627278Y-160896284D01*
X177549831Y-160751392D01*
X177528259Y-160725106D01*
X177613841Y-160564993D01*
X177673024Y-160369895D01*
X177693007Y-160167000D01*
X177673024Y-159964105D01*
X177613841Y-159769007D01*
X177517734Y-159589203D01*
X177478996Y-159542000D01*
X177517734Y-159494797D01*
X177613841Y-159314993D01*
X177673024Y-159119895D01*
X177693007Y-158917000D01*
X177673024Y-158714105D01*
X177613841Y-158519007D01*
X177517734Y-158339203D01*
X177388396Y-158181604D01*
X177230797Y-158052266D01*
X177050993Y-157956159D01*
X176855895Y-157896976D01*
X176703838Y-157882000D01*
X176102162Y-157882000D01*
X176009072Y-157891168D01*
X176009072Y-157865000D01*
X175992008Y-157691746D01*
X175941472Y-157525150D01*
X175859405Y-157371614D01*
X175748962Y-157237038D01*
X175614386Y-157126595D01*
X175460850Y-157044528D01*
X175294254Y-156993992D01*
X175121000Y-156976928D01*
X174555217Y-156976928D01*
X174166610Y-156588321D01*
X174137324Y-156552636D01*
X173994952Y-156435794D01*
X173832520Y-156348973D01*
X173656272Y-156295509D01*
X173518912Y-156281980D01*
X173472980Y-156277456D01*
X173427048Y-156281980D01*
X166083951Y-156281980D01*
X166038019Y-156277456D01*
X165854727Y-156295509D01*
X165801263Y-156311727D01*
X165678480Y-156348973D01*
X165516048Y-156435794D01*
X165373676Y-156552636D01*
X165344394Y-156588316D01*
X164050711Y-157882000D01*
X164037162Y-157882000D01*
X163885105Y-157896976D01*
X163690007Y-157956159D01*
X163510203Y-158052266D01*
X163352604Y-158181604D01*
X163223266Y-158339203D01*
X163127159Y-158519007D01*
X163067976Y-158714105D01*
X163047993Y-158917000D01*
X158660000Y-158917000D01*
X158660000Y-150127000D01*
X168574470Y-150127000D01*
X168511595Y-150203614D01*
%TA.AperFunction,Conductor*%
D14*
G36*
X168511595Y-150203614D02*
G01*
X168429528Y-150357150D01*
X168378992Y-150523746D01*
X168361928Y-150697000D01*
X168361928Y-151897000D01*
X168378992Y-152070254D01*
X168429528Y-152236850D01*
X168511595Y-152390386D01*
X168622038Y-152524962D01*
X168756614Y-152635405D01*
X168910150Y-152717472D01*
X169076746Y-152768008D01*
X169250000Y-152785072D01*
X170750000Y-152785072D01*
X170923254Y-152768008D01*
X171089850Y-152717472D01*
X171243386Y-152635405D01*
X171377962Y-152524962D01*
X171488405Y-152390386D01*
X171570472Y-152236850D01*
X171621008Y-152070254D01*
X171638072Y-151897000D01*
X171638072Y-150697000D01*
X171621008Y-150523746D01*
X171570472Y-150357150D01*
X171488405Y-150203614D01*
X171425530Y-150127000D01*
X181340000Y-150127000D01*
X181340001Y-160216970D01*
X181054880Y-160026458D01*
X180649592Y-159858582D01*
X180219340Y-159773000D01*
X179780660Y-159773000D01*
X179350408Y-159858582D01*
X178945120Y-160026458D01*
X178580370Y-160270176D01*
X178270176Y-160580370D01*
X178026458Y-160945120D01*
X177858582Y-161350408D01*
X177773000Y-161780660D01*
X177773000Y-162219340D01*
X177858582Y-162649592D01*
X178026458Y-163054880D01*
X178216969Y-163340000D01*
X161783031Y-163340000D01*
X161973542Y-163054880D01*
X162141418Y-162649592D01*
X162227000Y-162219340D01*
X162227000Y-161780660D01*
X162141418Y-161350408D01*
X162086159Y-161217000D01*
X163049928Y-161217000D01*
X163049928Y-161617000D01*
X163066031Y-161780500D01*
X163113722Y-161937716D01*
X163191169Y-162082608D01*
X163295394Y-162209606D01*
X163422392Y-162313831D01*
X163567284Y-162391278D01*
X163724500Y-162438969D01*
X163888000Y-162455072D01*
X164788000Y-162455072D01*
X164951500Y-162438969D01*
X165108716Y-162391278D01*
X165253608Y-162313831D01*
X165380606Y-162209606D01*
X165484831Y-162082608D01*
X165562278Y-161937716D01*
X165609969Y-161780500D01*
X165626072Y-161617000D01*
X165626072Y-161217000D01*
X166605928Y-161217000D01*
X166605928Y-161617000D01*
X166622031Y-161780500D01*
X166669722Y-161937716D01*
X166747169Y-162082608D01*
X166851394Y-162209606D01*
X166978392Y-162313831D01*
X167123284Y-162391278D01*
X167280500Y-162438969D01*
X167444000Y-162455072D01*
X168344000Y-162455072D01*
X168507500Y-162438969D01*
X168664716Y-162391278D01*
X168809608Y-162313831D01*
X168936606Y-162209606D01*
X169040831Y-162082608D01*
X169118278Y-161937716D01*
X169165969Y-161780500D01*
X169182072Y-161617000D01*
X169182072Y-161217000D01*
X169165969Y-161053500D01*
X169118278Y-160896284D01*
X169040831Y-160751392D01*
X168936606Y-160624394D01*
X168809608Y-160520169D01*
X168664716Y-160442722D01*
X168507500Y-160395031D01*
X168344000Y-160378928D01*
X167444000Y-160378928D01*
X167280500Y-160395031D01*
X167123284Y-160442722D01*
X166978392Y-160520169D01*
X166851394Y-160624394D01*
X166747169Y-160751392D01*
X166669722Y-160896284D01*
X166622031Y-161053500D01*
X166605928Y-161217000D01*
X165626072Y-161217000D01*
X165609969Y-161053500D01*
X165562278Y-160896284D01*
X165484831Y-160751392D01*
X165380606Y-160624394D01*
X165253608Y-160520169D01*
X165108716Y-160442722D01*
X164951500Y-160395031D01*
X164788000Y-160378928D01*
X163888000Y-160378928D01*
X163724500Y-160395031D01*
X163567284Y-160442722D01*
X163422392Y-160520169D01*
X163295394Y-160624394D01*
X163191169Y-160751392D01*
X163113722Y-160896284D01*
X163066031Y-161053500D01*
X163049928Y-161217000D01*
X162086159Y-161217000D01*
X161973542Y-160945120D01*
X161729824Y-160580370D01*
X161419630Y-160270176D01*
X161054880Y-160026458D01*
X160649592Y-159858582D01*
X160219340Y-159773000D01*
X159780660Y-159773000D01*
X159350408Y-159858582D01*
X158945120Y-160026458D01*
X158660000Y-160216969D01*
X158660000Y-158917000D01*
X163047993Y-158917000D01*
X163067976Y-159119895D01*
X163127159Y-159314993D01*
X163223266Y-159494797D01*
X163352604Y-159652396D01*
X163510203Y-159781734D01*
X163690007Y-159877841D01*
X163885105Y-159937024D01*
X164037162Y-159952000D01*
X164638838Y-159952000D01*
X164790895Y-159937024D01*
X164985993Y-159877841D01*
X165165797Y-159781734D01*
X165323396Y-159652396D01*
X165452734Y-159494797D01*
X165548841Y-159314993D01*
X165608024Y-159119895D01*
X165624480Y-158952809D01*
X166425310Y-158151980D01*
X166944701Y-158151980D01*
X166908604Y-158181604D01*
X166779266Y-158339203D01*
X166683159Y-158519007D01*
X166623976Y-158714105D01*
X166603993Y-158917000D01*
X166623976Y-159119895D01*
X166683159Y-159314993D01*
X166779266Y-159494797D01*
X166908604Y-159652396D01*
X167066203Y-159781734D01*
X167246007Y-159877841D01*
X167441105Y-159937024D01*
X167593162Y-159952000D01*
X168194838Y-159952000D01*
X168346895Y-159937024D01*
X168541993Y-159877841D01*
X168721797Y-159781734D01*
X168879396Y-159652396D01*
X169008734Y-159494797D01*
X169104841Y-159314993D01*
X169164024Y-159119895D01*
X169180480Y-158952810D01*
X169181300Y-158951990D01*
X170163439Y-158951990D01*
X170179976Y-159119895D01*
X170239159Y-159314993D01*
X170335266Y-159494797D01*
X170464604Y-159652396D01*
X170622203Y-159781734D01*
X170802007Y-159877841D01*
X170997105Y-159937024D01*
X171149162Y-159952000D01*
X171435517Y-159952000D01*
X171665010Y-160181493D01*
X171665010Y-160378928D01*
X171000000Y-160378928D01*
X170836500Y-160395031D01*
X170679284Y-160442722D01*
X170534392Y-160520169D01*
X170407394Y-160624394D01*
X170303169Y-160751392D01*
X170225722Y-160896284D01*
X170178031Y-161053500D01*
X170161928Y-161217000D01*
X170161928Y-161617000D01*
X170178031Y-161780500D01*
X170225722Y-161937716D01*
X170303169Y-162082608D01*
X170407394Y-162209606D01*
X170534392Y-162313831D01*
X170679284Y-162391278D01*
X170836500Y-162438969D01*
X171000000Y-162455072D01*
X171900000Y-162455072D01*
X172063500Y-162438969D01*
X172220716Y-162391278D01*
X172365608Y-162313831D01*
X172492606Y-162209606D01*
X172596831Y-162082608D01*
X172674278Y-161937716D01*
X172698593Y-161857560D01*
X172732928Y-161891895D01*
X172732928Y-162302000D01*
X172749992Y-162475254D01*
X172800528Y-162641850D01*
X172882595Y-162795386D01*
X172993038Y-162929962D01*
X173127614Y-163040405D01*
X173281150Y-163122472D01*
X173447746Y-163173008D01*
X173621000Y-163190072D01*
X175121000Y-163190072D01*
X175294254Y-163173008D01*
X175460850Y-163122472D01*
X175614386Y-163040405D01*
X175748962Y-162929962D01*
X175859405Y-162795386D01*
X175941472Y-162641850D01*
X175992008Y-162475254D01*
X175993996Y-162455072D01*
X176853000Y-162455072D01*
X177016500Y-162438969D01*
X177173716Y-162391278D01*
X177318608Y-162313831D01*
X177445606Y-162209606D01*
X177549831Y-162082608D01*
X177627278Y-161937716D01*
X177674969Y-161780500D01*
X177691072Y-161617000D01*
X177691072Y-161217000D01*
X177674969Y-161053500D01*
X177627278Y-160896284D01*
X177549831Y-160751392D01*
X177528259Y-160725106D01*
X177613841Y-160564993D01*
X177673024Y-160369895D01*
X177693007Y-160167000D01*
X177673024Y-159964105D01*
X177613841Y-159769007D01*
X177517734Y-159589203D01*
X177478996Y-159542000D01*
X177517734Y-159494797D01*
X177613841Y-159314993D01*
X177673024Y-159119895D01*
X177693007Y-158917000D01*
X177673024Y-158714105D01*
X177613841Y-158519007D01*
X177517734Y-158339203D01*
X177388396Y-158181604D01*
X177230797Y-158052266D01*
X177050993Y-157956159D01*
X176855895Y-157896976D01*
X176703838Y-157882000D01*
X176102162Y-157882000D01*
X176009072Y-157891168D01*
X176009072Y-157865000D01*
X175992008Y-157691746D01*
X175941472Y-157525150D01*
X175859405Y-157371614D01*
X175748962Y-157237038D01*
X175614386Y-157126595D01*
X175460850Y-157044528D01*
X175294254Y-156993992D01*
X175121000Y-156976928D01*
X174555217Y-156976928D01*
X174166610Y-156588321D01*
X174137324Y-156552636D01*
X173994952Y-156435794D01*
X173832520Y-156348973D01*
X173656272Y-156295509D01*
X173518912Y-156281980D01*
X173472980Y-156277456D01*
X173427048Y-156281980D01*
X166083951Y-156281980D01*
X166038019Y-156277456D01*
X165854727Y-156295509D01*
X165801263Y-156311727D01*
X165678480Y-156348973D01*
X165516048Y-156435794D01*
X165373676Y-156552636D01*
X165344394Y-156588316D01*
X164050711Y-157882000D01*
X164037162Y-157882000D01*
X163885105Y-157896976D01*
X163690007Y-157956159D01*
X163510203Y-158052266D01*
X163352604Y-158181604D01*
X163223266Y-158339203D01*
X163127159Y-158519007D01*
X163067976Y-158714105D01*
X163047993Y-158917000D01*
X158660000Y-158917000D01*
X158660000Y-150127000D01*
X168574470Y-150127000D01*
X168511595Y-150203614D01*
G37*
%TD.AperFunction*%
%TD*%
M02*
