%TF.GenerationSoftware,KiCad,Pcbnew,(5.1.9)-1*%
%TF.CreationDate,2021-08-12T13:22:24+01:00*%
%TF.ProjectId,heli-servo-board,68656c69-2d73-4657-9276-6f2d626f6172,rev?*%
%TF.SameCoordinates,Original*%
%TF.FileFunction,Copper,L2,Bot*%
%TF.FilePolarity,Positive*%
%FSLAX46Y46*%
G04 Gerber Fmt 4.6, Leading zero omitted, Abs format (unit mm)*
G04 Created by KiCad (PCBNEW (5.1.9)-1) date 2021-08-12 13:22:24*
%MOMM*%
%LPD*%
G01*
G04 APERTURE LIST*
%TA.AperFunction,ComponentPad*%
%ADD10O,1.300000X0.800000*%
%TD*%
%TA.AperFunction,ComponentPad*%
%ADD11O,2.000000X1.700000*%
%TD*%
%TA.AperFunction,Conductor*%
%ADD12C,0.254000*%
%TD*%
%TA.AperFunction,Conductor*%
%ADD13C,0.100000*%
%TD*%
G04 APERTURE END LIST*
D10*
%TO.P,J1,3*%
%TO.N,Net-(J1-Pad3)*%
X176403000Y-158917000D03*
%TO.P,J1,2*%
%TO.N,Net-(J1-Pad2)*%
X176403000Y-160167000D03*
%TO.P,J1,1*%
%TO.N,Net-(J1-Pad1)*%
%TA.AperFunction,ComponentPad*%
G36*
G01*
X176853000Y-161817000D02*
X175953000Y-161817000D01*
G75*
G02*
X175753000Y-161617000I0J200000D01*
G01*
X175753000Y-161217000D01*
G75*
G02*
X175953000Y-161017000I200000J0D01*
G01*
X176853000Y-161017000D01*
G75*
G02*
X177053000Y-161217000I0J-200000D01*
G01*
X177053000Y-161617000D01*
G75*
G02*
X176853000Y-161817000I-200000J0D01*
G01*
G37*
%TD.AperFunction*%
%TD*%
%TO.P,J4,3*%
%TO.N,Net-(J1-Pad1)*%
X171450000Y-158917000D03*
%TO.P,J4,2*%
%TO.N,+BATT*%
X171450000Y-160167000D03*
%TO.P,J4,1*%
%TO.N,GND*%
%TA.AperFunction,ComponentPad*%
G36*
G01*
X171900000Y-161817000D02*
X171000000Y-161817000D01*
G75*
G02*
X170800000Y-161617000I0J200000D01*
G01*
X170800000Y-161217000D01*
G75*
G02*
X171000000Y-161017000I200000J0D01*
G01*
X171900000Y-161017000D01*
G75*
G02*
X172100000Y-161217000I0J-200000D01*
G01*
X172100000Y-161617000D01*
G75*
G02*
X171900000Y-161817000I-200000J0D01*
G01*
G37*
%TD.AperFunction*%
%TD*%
%TO.P,J3,3*%
%TO.N,Net-(J1-Pad2)*%
X167894000Y-158917000D03*
%TO.P,J3,2*%
%TO.N,+BATT*%
X167894000Y-160167000D03*
%TO.P,J3,1*%
%TO.N,GND*%
%TA.AperFunction,ComponentPad*%
G36*
G01*
X168344000Y-161817000D02*
X167444000Y-161817000D01*
G75*
G02*
X167244000Y-161617000I0J200000D01*
G01*
X167244000Y-161217000D01*
G75*
G02*
X167444000Y-161017000I200000J0D01*
G01*
X168344000Y-161017000D01*
G75*
G02*
X168544000Y-161217000I0J-200000D01*
G01*
X168544000Y-161617000D01*
G75*
G02*
X168344000Y-161817000I-200000J0D01*
G01*
G37*
%TD.AperFunction*%
%TD*%
%TO.P,J2,3*%
%TO.N,Net-(J1-Pad3)*%
X164338000Y-158917000D03*
%TO.P,J2,2*%
%TO.N,+BATT*%
X164338000Y-160167000D03*
%TO.P,J2,1*%
%TO.N,GND*%
%TA.AperFunction,ComponentPad*%
G36*
G01*
X164788000Y-161817000D02*
X163888000Y-161817000D01*
G75*
G02*
X163688000Y-161617000I0J200000D01*
G01*
X163688000Y-161217000D01*
G75*
G02*
X163888000Y-161017000I200000J0D01*
G01*
X164788000Y-161017000D01*
G75*
G02*
X164988000Y-161217000I0J-200000D01*
G01*
X164988000Y-161617000D01*
G75*
G02*
X164788000Y-161817000I-200000J0D01*
G01*
G37*
%TD.AperFunction*%
%TD*%
D11*
%TO.P,J6,2*%
%TO.N,+BATT*%
X170000000Y-153797000D03*
%TO.P,J6,1*%
%TO.N,GND*%
%TA.AperFunction,ComponentPad*%
G36*
G01*
X169250000Y-150447000D02*
X170750000Y-150447000D01*
G75*
G02*
X171000000Y-150697000I0J-250000D01*
G01*
X171000000Y-151897000D01*
G75*
G02*
X170750000Y-152147000I-250000J0D01*
G01*
X169250000Y-152147000D01*
G75*
G02*
X169000000Y-151897000I0J250000D01*
G01*
X169000000Y-150697000D01*
G75*
G02*
X169250000Y-150447000I250000J0D01*
G01*
G37*
%TD.AperFunction*%
%TD*%
D12*
%TO.N,GND*%
X181340001Y-160216970D02*
X181054880Y-160026458D01*
X180649592Y-159858582D01*
X180219340Y-159773000D01*
X179780660Y-159773000D01*
X179350408Y-159858582D01*
X178945120Y-160026458D01*
X178580370Y-160270176D01*
X178270176Y-160580370D01*
X178026458Y-160945120D01*
X177858582Y-161350408D01*
X177773000Y-161780660D01*
X177773000Y-162219340D01*
X177858582Y-162649592D01*
X178026458Y-163054880D01*
X178216969Y-163340000D01*
X161783031Y-163340000D01*
X161973542Y-163054880D01*
X162141418Y-162649592D01*
X162227000Y-162219340D01*
X162227000Y-161780660D01*
X162141418Y-161350408D01*
X161973542Y-160945120D01*
X161729824Y-160580370D01*
X161419630Y-160270176D01*
X161054880Y-160026458D01*
X160649592Y-159858582D01*
X160219340Y-159773000D01*
X159780660Y-159773000D01*
X159350408Y-159858582D01*
X158945120Y-160026458D01*
X158660000Y-160216969D01*
X158660000Y-158917000D01*
X163047993Y-158917000D01*
X163067976Y-159119895D01*
X163127159Y-159314993D01*
X163223266Y-159494797D01*
X163262004Y-159542000D01*
X163223266Y-159589203D01*
X163127159Y-159769007D01*
X163067976Y-159964105D01*
X163047993Y-160167000D01*
X163067976Y-160369895D01*
X163127159Y-160564993D01*
X163223266Y-160744797D01*
X163352604Y-160902396D01*
X163510203Y-161031734D01*
X163690007Y-161127841D01*
X163885105Y-161187024D01*
X164037162Y-161202000D01*
X164638838Y-161202000D01*
X164790895Y-161187024D01*
X164985993Y-161127841D01*
X165165797Y-161031734D01*
X165323396Y-160902396D01*
X165452734Y-160744797D01*
X165548841Y-160564993D01*
X165608024Y-160369895D01*
X165628007Y-160167000D01*
X165608024Y-159964105D01*
X165548841Y-159769007D01*
X165452734Y-159589203D01*
X165413996Y-159542000D01*
X165452734Y-159494797D01*
X165548841Y-159314993D01*
X165608024Y-159119895D01*
X165628007Y-158917000D01*
X166603993Y-158917000D01*
X166623976Y-159119895D01*
X166683159Y-159314993D01*
X166779266Y-159494797D01*
X166818004Y-159542000D01*
X166779266Y-159589203D01*
X166683159Y-159769007D01*
X166623976Y-159964105D01*
X166603993Y-160167000D01*
X166623976Y-160369895D01*
X166683159Y-160564993D01*
X166779266Y-160744797D01*
X166908604Y-160902396D01*
X167066203Y-161031734D01*
X167246007Y-161127841D01*
X167441105Y-161187024D01*
X167593162Y-161202000D01*
X168194838Y-161202000D01*
X168346895Y-161187024D01*
X168541993Y-161127841D01*
X168721797Y-161031734D01*
X168879396Y-160902396D01*
X169008734Y-160744797D01*
X169104841Y-160564993D01*
X169164024Y-160369895D01*
X169184007Y-160167000D01*
X169164024Y-159964105D01*
X169104841Y-159769007D01*
X169008734Y-159589203D01*
X168969996Y-159542000D01*
X169008734Y-159494797D01*
X169104841Y-159314993D01*
X169164024Y-159119895D01*
X169184007Y-158917000D01*
X170159993Y-158917000D01*
X170179976Y-159119895D01*
X170239159Y-159314993D01*
X170335266Y-159494797D01*
X170374004Y-159542000D01*
X170335266Y-159589203D01*
X170239159Y-159769007D01*
X170179976Y-159964105D01*
X170159993Y-160167000D01*
X170179976Y-160369895D01*
X170239159Y-160564993D01*
X170335266Y-160744797D01*
X170464604Y-160902396D01*
X170622203Y-161031734D01*
X170802007Y-161127841D01*
X170997105Y-161187024D01*
X171149162Y-161202000D01*
X171750838Y-161202000D01*
X171902895Y-161187024D01*
X172097993Y-161127841D01*
X172277797Y-161031734D01*
X172435396Y-160902396D01*
X172564734Y-160744797D01*
X172660841Y-160564993D01*
X172720024Y-160369895D01*
X172740007Y-160167000D01*
X172720024Y-159964105D01*
X172660841Y-159769007D01*
X172564734Y-159589203D01*
X172525996Y-159542000D01*
X172564734Y-159494797D01*
X172660841Y-159314993D01*
X172720024Y-159119895D01*
X172740007Y-158917000D01*
X175112993Y-158917000D01*
X175132976Y-159119895D01*
X175192159Y-159314993D01*
X175288266Y-159494797D01*
X175327004Y-159542000D01*
X175288266Y-159589203D01*
X175192159Y-159769007D01*
X175132976Y-159964105D01*
X175112993Y-160167000D01*
X175132976Y-160369895D01*
X175192159Y-160564993D01*
X175277741Y-160725106D01*
X175256169Y-160751392D01*
X175178722Y-160896284D01*
X175131031Y-161053500D01*
X175114928Y-161217000D01*
X175114928Y-161617000D01*
X175131031Y-161780500D01*
X175178722Y-161937716D01*
X175256169Y-162082608D01*
X175360394Y-162209606D01*
X175487392Y-162313831D01*
X175632284Y-162391278D01*
X175789500Y-162438969D01*
X175953000Y-162455072D01*
X176853000Y-162455072D01*
X177016500Y-162438969D01*
X177173716Y-162391278D01*
X177318608Y-162313831D01*
X177445606Y-162209606D01*
X177549831Y-162082608D01*
X177627278Y-161937716D01*
X177674969Y-161780500D01*
X177691072Y-161617000D01*
X177691072Y-161217000D01*
X177674969Y-161053500D01*
X177627278Y-160896284D01*
X177549831Y-160751392D01*
X177528259Y-160725106D01*
X177613841Y-160564993D01*
X177673024Y-160369895D01*
X177693007Y-160167000D01*
X177673024Y-159964105D01*
X177613841Y-159769007D01*
X177517734Y-159589203D01*
X177478996Y-159542000D01*
X177517734Y-159494797D01*
X177613841Y-159314993D01*
X177673024Y-159119895D01*
X177693007Y-158917000D01*
X177673024Y-158714105D01*
X177613841Y-158519007D01*
X177517734Y-158339203D01*
X177388396Y-158181604D01*
X177230797Y-158052266D01*
X177050993Y-157956159D01*
X176855895Y-157896976D01*
X176703838Y-157882000D01*
X176102162Y-157882000D01*
X175950105Y-157896976D01*
X175755007Y-157956159D01*
X175575203Y-158052266D01*
X175417604Y-158181604D01*
X175288266Y-158339203D01*
X175192159Y-158519007D01*
X175132976Y-158714105D01*
X175112993Y-158917000D01*
X172740007Y-158917000D01*
X172720024Y-158714105D01*
X172660841Y-158519007D01*
X172564734Y-158339203D01*
X172435396Y-158181604D01*
X172277797Y-158052266D01*
X172097993Y-157956159D01*
X171902895Y-157896976D01*
X171750838Y-157882000D01*
X171149162Y-157882000D01*
X170997105Y-157896976D01*
X170802007Y-157956159D01*
X170622203Y-158052266D01*
X170464604Y-158181604D01*
X170335266Y-158339203D01*
X170239159Y-158519007D01*
X170179976Y-158714105D01*
X170159993Y-158917000D01*
X169184007Y-158917000D01*
X169164024Y-158714105D01*
X169104841Y-158519007D01*
X169008734Y-158339203D01*
X168879396Y-158181604D01*
X168721797Y-158052266D01*
X168541993Y-157956159D01*
X168346895Y-157896976D01*
X168194838Y-157882000D01*
X167593162Y-157882000D01*
X167441105Y-157896976D01*
X167246007Y-157956159D01*
X167066203Y-158052266D01*
X166908604Y-158181604D01*
X166779266Y-158339203D01*
X166683159Y-158519007D01*
X166623976Y-158714105D01*
X166603993Y-158917000D01*
X165628007Y-158917000D01*
X165608024Y-158714105D01*
X165548841Y-158519007D01*
X165452734Y-158339203D01*
X165323396Y-158181604D01*
X165165797Y-158052266D01*
X164985993Y-157956159D01*
X164790895Y-157896976D01*
X164638838Y-157882000D01*
X164037162Y-157882000D01*
X163885105Y-157896976D01*
X163690007Y-157956159D01*
X163510203Y-158052266D01*
X163352604Y-158181604D01*
X163223266Y-158339203D01*
X163127159Y-158519007D01*
X163067976Y-158714105D01*
X163047993Y-158917000D01*
X158660000Y-158917000D01*
X158660000Y-153797000D01*
X168357815Y-153797000D01*
X168386487Y-154088111D01*
X168471401Y-154368034D01*
X168609294Y-154626014D01*
X168794866Y-154852134D01*
X169020986Y-155037706D01*
X169278966Y-155175599D01*
X169558889Y-155260513D01*
X169777050Y-155282000D01*
X170222950Y-155282000D01*
X170441111Y-155260513D01*
X170721034Y-155175599D01*
X170979014Y-155037706D01*
X171205134Y-154852134D01*
X171390706Y-154626014D01*
X171528599Y-154368034D01*
X171613513Y-154088111D01*
X171642185Y-153797000D01*
X171613513Y-153505889D01*
X171528599Y-153225966D01*
X171390706Y-152967986D01*
X171205134Y-152741866D01*
X170979014Y-152556294D01*
X170721034Y-152418401D01*
X170441111Y-152333487D01*
X170222950Y-152312000D01*
X169777050Y-152312000D01*
X169558889Y-152333487D01*
X169278966Y-152418401D01*
X169020986Y-152556294D01*
X168794866Y-152741866D01*
X168609294Y-152967986D01*
X168471401Y-153225966D01*
X168386487Y-153505889D01*
X168357815Y-153797000D01*
X158660000Y-153797000D01*
X158660000Y-150127000D01*
X181340000Y-150127000D01*
X181340001Y-160216970D01*
%TA.AperFunction,Conductor*%
D13*
G36*
X181340001Y-160216970D02*
G01*
X181054880Y-160026458D01*
X180649592Y-159858582D01*
X180219340Y-159773000D01*
X179780660Y-159773000D01*
X179350408Y-159858582D01*
X178945120Y-160026458D01*
X178580370Y-160270176D01*
X178270176Y-160580370D01*
X178026458Y-160945120D01*
X177858582Y-161350408D01*
X177773000Y-161780660D01*
X177773000Y-162219340D01*
X177858582Y-162649592D01*
X178026458Y-163054880D01*
X178216969Y-163340000D01*
X161783031Y-163340000D01*
X161973542Y-163054880D01*
X162141418Y-162649592D01*
X162227000Y-162219340D01*
X162227000Y-161780660D01*
X162141418Y-161350408D01*
X161973542Y-160945120D01*
X161729824Y-160580370D01*
X161419630Y-160270176D01*
X161054880Y-160026458D01*
X160649592Y-159858582D01*
X160219340Y-159773000D01*
X159780660Y-159773000D01*
X159350408Y-159858582D01*
X158945120Y-160026458D01*
X158660000Y-160216969D01*
X158660000Y-158917000D01*
X163047993Y-158917000D01*
X163067976Y-159119895D01*
X163127159Y-159314993D01*
X163223266Y-159494797D01*
X163262004Y-159542000D01*
X163223266Y-159589203D01*
X163127159Y-159769007D01*
X163067976Y-159964105D01*
X163047993Y-160167000D01*
X163067976Y-160369895D01*
X163127159Y-160564993D01*
X163223266Y-160744797D01*
X163352604Y-160902396D01*
X163510203Y-161031734D01*
X163690007Y-161127841D01*
X163885105Y-161187024D01*
X164037162Y-161202000D01*
X164638838Y-161202000D01*
X164790895Y-161187024D01*
X164985993Y-161127841D01*
X165165797Y-161031734D01*
X165323396Y-160902396D01*
X165452734Y-160744797D01*
X165548841Y-160564993D01*
X165608024Y-160369895D01*
X165628007Y-160167000D01*
X165608024Y-159964105D01*
X165548841Y-159769007D01*
X165452734Y-159589203D01*
X165413996Y-159542000D01*
X165452734Y-159494797D01*
X165548841Y-159314993D01*
X165608024Y-159119895D01*
X165628007Y-158917000D01*
X166603993Y-158917000D01*
X166623976Y-159119895D01*
X166683159Y-159314993D01*
X166779266Y-159494797D01*
X166818004Y-159542000D01*
X166779266Y-159589203D01*
X166683159Y-159769007D01*
X166623976Y-159964105D01*
X166603993Y-160167000D01*
X166623976Y-160369895D01*
X166683159Y-160564993D01*
X166779266Y-160744797D01*
X166908604Y-160902396D01*
X167066203Y-161031734D01*
X167246007Y-161127841D01*
X167441105Y-161187024D01*
X167593162Y-161202000D01*
X168194838Y-161202000D01*
X168346895Y-161187024D01*
X168541993Y-161127841D01*
X168721797Y-161031734D01*
X168879396Y-160902396D01*
X169008734Y-160744797D01*
X169104841Y-160564993D01*
X169164024Y-160369895D01*
X169184007Y-160167000D01*
X169164024Y-159964105D01*
X169104841Y-159769007D01*
X169008734Y-159589203D01*
X168969996Y-159542000D01*
X169008734Y-159494797D01*
X169104841Y-159314993D01*
X169164024Y-159119895D01*
X169184007Y-158917000D01*
X170159993Y-158917000D01*
X170179976Y-159119895D01*
X170239159Y-159314993D01*
X170335266Y-159494797D01*
X170374004Y-159542000D01*
X170335266Y-159589203D01*
X170239159Y-159769007D01*
X170179976Y-159964105D01*
X170159993Y-160167000D01*
X170179976Y-160369895D01*
X170239159Y-160564993D01*
X170335266Y-160744797D01*
X170464604Y-160902396D01*
X170622203Y-161031734D01*
X170802007Y-161127841D01*
X170997105Y-161187024D01*
X171149162Y-161202000D01*
X171750838Y-161202000D01*
X171902895Y-161187024D01*
X172097993Y-161127841D01*
X172277797Y-161031734D01*
X172435396Y-160902396D01*
X172564734Y-160744797D01*
X172660841Y-160564993D01*
X172720024Y-160369895D01*
X172740007Y-160167000D01*
X172720024Y-159964105D01*
X172660841Y-159769007D01*
X172564734Y-159589203D01*
X172525996Y-159542000D01*
X172564734Y-159494797D01*
X172660841Y-159314993D01*
X172720024Y-159119895D01*
X172740007Y-158917000D01*
X175112993Y-158917000D01*
X175132976Y-159119895D01*
X175192159Y-159314993D01*
X175288266Y-159494797D01*
X175327004Y-159542000D01*
X175288266Y-159589203D01*
X175192159Y-159769007D01*
X175132976Y-159964105D01*
X175112993Y-160167000D01*
X175132976Y-160369895D01*
X175192159Y-160564993D01*
X175277741Y-160725106D01*
X175256169Y-160751392D01*
X175178722Y-160896284D01*
X175131031Y-161053500D01*
X175114928Y-161217000D01*
X175114928Y-161617000D01*
X175131031Y-161780500D01*
X175178722Y-161937716D01*
X175256169Y-162082608D01*
X175360394Y-162209606D01*
X175487392Y-162313831D01*
X175632284Y-162391278D01*
X175789500Y-162438969D01*
X175953000Y-162455072D01*
X176853000Y-162455072D01*
X177016500Y-162438969D01*
X177173716Y-162391278D01*
X177318608Y-162313831D01*
X177445606Y-162209606D01*
X177549831Y-162082608D01*
X177627278Y-161937716D01*
X177674969Y-161780500D01*
X177691072Y-161617000D01*
X177691072Y-161217000D01*
X177674969Y-161053500D01*
X177627278Y-160896284D01*
X177549831Y-160751392D01*
X177528259Y-160725106D01*
X177613841Y-160564993D01*
X177673024Y-160369895D01*
X177693007Y-160167000D01*
X177673024Y-159964105D01*
X177613841Y-159769007D01*
X177517734Y-159589203D01*
X177478996Y-159542000D01*
X177517734Y-159494797D01*
X177613841Y-159314993D01*
X177673024Y-159119895D01*
X177693007Y-158917000D01*
X177673024Y-158714105D01*
X177613841Y-158519007D01*
X177517734Y-158339203D01*
X177388396Y-158181604D01*
X177230797Y-158052266D01*
X177050993Y-157956159D01*
X176855895Y-157896976D01*
X176703838Y-157882000D01*
X176102162Y-157882000D01*
X175950105Y-157896976D01*
X175755007Y-157956159D01*
X175575203Y-158052266D01*
X175417604Y-158181604D01*
X175288266Y-158339203D01*
X175192159Y-158519007D01*
X175132976Y-158714105D01*
X175112993Y-158917000D01*
X172740007Y-158917000D01*
X172720024Y-158714105D01*
X172660841Y-158519007D01*
X172564734Y-158339203D01*
X172435396Y-158181604D01*
X172277797Y-158052266D01*
X172097993Y-157956159D01*
X171902895Y-157896976D01*
X171750838Y-157882000D01*
X171149162Y-157882000D01*
X170997105Y-157896976D01*
X170802007Y-157956159D01*
X170622203Y-158052266D01*
X170464604Y-158181604D01*
X170335266Y-158339203D01*
X170239159Y-158519007D01*
X170179976Y-158714105D01*
X170159993Y-158917000D01*
X169184007Y-158917000D01*
X169164024Y-158714105D01*
X169104841Y-158519007D01*
X169008734Y-158339203D01*
X168879396Y-158181604D01*
X168721797Y-158052266D01*
X168541993Y-157956159D01*
X168346895Y-157896976D01*
X168194838Y-157882000D01*
X167593162Y-157882000D01*
X167441105Y-157896976D01*
X167246007Y-157956159D01*
X167066203Y-158052266D01*
X166908604Y-158181604D01*
X166779266Y-158339203D01*
X166683159Y-158519007D01*
X166623976Y-158714105D01*
X166603993Y-158917000D01*
X165628007Y-158917000D01*
X165608024Y-158714105D01*
X165548841Y-158519007D01*
X165452734Y-158339203D01*
X165323396Y-158181604D01*
X165165797Y-158052266D01*
X164985993Y-157956159D01*
X164790895Y-157896976D01*
X164638838Y-157882000D01*
X164037162Y-157882000D01*
X163885105Y-157896976D01*
X163690007Y-157956159D01*
X163510203Y-158052266D01*
X163352604Y-158181604D01*
X163223266Y-158339203D01*
X163127159Y-158519007D01*
X163067976Y-158714105D01*
X163047993Y-158917000D01*
X158660000Y-158917000D01*
X158660000Y-153797000D01*
X168357815Y-153797000D01*
X168386487Y-154088111D01*
X168471401Y-154368034D01*
X168609294Y-154626014D01*
X168794866Y-154852134D01*
X169020986Y-155037706D01*
X169278966Y-155175599D01*
X169558889Y-155260513D01*
X169777050Y-155282000D01*
X170222950Y-155282000D01*
X170441111Y-155260513D01*
X170721034Y-155175599D01*
X170979014Y-155037706D01*
X171205134Y-154852134D01*
X171390706Y-154626014D01*
X171528599Y-154368034D01*
X171613513Y-154088111D01*
X171642185Y-153797000D01*
X171613513Y-153505889D01*
X171528599Y-153225966D01*
X171390706Y-152967986D01*
X171205134Y-152741866D01*
X170979014Y-152556294D01*
X170721034Y-152418401D01*
X170441111Y-152333487D01*
X170222950Y-152312000D01*
X169777050Y-152312000D01*
X169558889Y-152333487D01*
X169278966Y-152418401D01*
X169020986Y-152556294D01*
X168794866Y-152741866D01*
X168609294Y-152967986D01*
X168471401Y-153225966D01*
X168386487Y-153505889D01*
X168357815Y-153797000D01*
X158660000Y-153797000D01*
X158660000Y-150127000D01*
X181340000Y-150127000D01*
X181340001Y-160216970D01*
G37*
%TD.AperFunction*%
%TD*%
M02*
