%TF.GenerationSoftware,KiCad,Pcbnew,(5.1.9)-1*%
%TF.CreationDate,2021-08-12T17:05:41+01:00*%
%TF.ProjectId,heli-servo-board,68656c69-2d73-4657-9276-6f2d626f6172,rev?*%
%TF.SameCoordinates,Original*%
%TF.FileFunction,Legend,Top*%
%TF.FilePolarity,Positive*%
%FSLAX46Y46*%
G04 Gerber Fmt 4.6, Leading zero omitted, Abs format (unit mm)*
G04 Created by KiCad (PCBNEW (5.1.9)-1) date 2021-08-12 17:05:41*
%MOMM*%
%LPD*%
G01*
G04 APERTURE LIST*
%ADD10C,0.153000*%
%ADD11C,0.120000*%
G04 APERTURE END LIST*
D10*
X170802333Y-156533904D02*
X171297571Y-156533904D01*
X171030904Y-156838666D01*
X171145190Y-156838666D01*
X171221380Y-156876761D01*
X171259476Y-156914857D01*
X171297571Y-156991047D01*
X171297571Y-157181523D01*
X171259476Y-157257714D01*
X171221380Y-157295809D01*
X171145190Y-157333904D01*
X170916619Y-157333904D01*
X170840428Y-157295809D01*
X170802333Y-157257714D01*
X167284428Y-156610095D02*
X167322523Y-156572000D01*
X167398714Y-156533904D01*
X167589190Y-156533904D01*
X167665380Y-156572000D01*
X167703476Y-156610095D01*
X167741571Y-156686285D01*
X167741571Y-156762476D01*
X167703476Y-156876761D01*
X167246333Y-157333904D01*
X167741571Y-157333904D01*
X164185571Y-157333904D02*
X163728428Y-157333904D01*
X163957000Y-157333904D02*
X163957000Y-156533904D01*
X163880809Y-156648190D01*
X163804619Y-156724380D01*
X163728428Y-156762476D01*
X178542904Y-159696047D02*
X177742904Y-159696047D01*
X178542904Y-159315095D02*
X177742904Y-159315095D01*
X178542904Y-158857952D01*
X177742904Y-158857952D01*
X178542904Y-158477000D02*
X177742904Y-158477000D01*
X177742904Y-158172238D01*
X177781000Y-158096047D01*
X177819095Y-158057952D01*
X177895285Y-158019857D01*
X178009571Y-158019857D01*
X178085761Y-158057952D01*
X178123857Y-158096047D01*
X178161952Y-158172238D01*
X178161952Y-158477000D01*
X172453333Y-161613904D02*
X172948571Y-161613904D01*
X172681904Y-161918666D01*
X172796190Y-161918666D01*
X172872380Y-161956761D01*
X172910476Y-161994857D01*
X172948571Y-162071047D01*
X172948571Y-162261523D01*
X172910476Y-162337714D01*
X172872380Y-162375809D01*
X172796190Y-162413904D01*
X172567619Y-162413904D01*
X172491428Y-162375809D01*
X172453333Y-162337714D01*
X172491428Y-159785095D02*
X172529523Y-159747000D01*
X172605714Y-159708904D01*
X172796190Y-159708904D01*
X172872380Y-159747000D01*
X172910476Y-159785095D01*
X172948571Y-159861285D01*
X172948571Y-159937476D01*
X172910476Y-160051761D01*
X172453333Y-160508904D01*
X172948571Y-160508904D01*
X172948571Y-158476904D02*
X172491428Y-158476904D01*
X172720000Y-158476904D02*
X172720000Y-157676904D01*
X172643809Y-157791190D01*
X172567619Y-157867380D01*
X172491428Y-157905476D01*
X172961428Y-153854142D02*
X173570952Y-153854142D01*
X173266190Y-154158904D02*
X173266190Y-153549380D01*
X174332857Y-153358904D02*
X173951904Y-153358904D01*
X173913809Y-153739857D01*
X173951904Y-153701761D01*
X174028095Y-153663666D01*
X174218571Y-153663666D01*
X174294761Y-153701761D01*
X174332857Y-153739857D01*
X174370952Y-153816047D01*
X174370952Y-154006523D01*
X174332857Y-154082714D01*
X174294761Y-154120809D01*
X174218571Y-154158904D01*
X174028095Y-154158904D01*
X173951904Y-154120809D01*
X173913809Y-154082714D01*
X174599523Y-153358904D02*
X174866190Y-154158904D01*
X175132857Y-153358904D01*
X177139142Y-156301073D02*
X177139142Y-155691550D01*
X177443904Y-155996311D02*
X176834380Y-155996311D01*
X176643904Y-154929645D02*
X176643904Y-155310597D01*
X177024857Y-155348692D01*
X176986761Y-155310597D01*
X176948666Y-155234407D01*
X176948666Y-155043930D01*
X176986761Y-154967740D01*
X177024857Y-154929645D01*
X177101047Y-154891550D01*
X177291523Y-154891550D01*
X177367714Y-154929645D01*
X177405809Y-154967740D01*
X177443904Y-155043930D01*
X177443904Y-155234407D01*
X177405809Y-155310597D01*
X177367714Y-155348692D01*
X176643904Y-154662978D02*
X177443904Y-154396311D01*
X176643904Y-154129645D01*
X177405809Y-153291550D02*
X177443904Y-153177264D01*
X177443904Y-152986788D01*
X177405809Y-152910597D01*
X177367714Y-152872502D01*
X177291523Y-152834407D01*
X177215333Y-152834407D01*
X177139142Y-152872502D01*
X177101047Y-152910597D01*
X177062952Y-152986788D01*
X177024857Y-153139169D01*
X176986761Y-153215359D01*
X176948666Y-153253454D01*
X176872476Y-153291550D01*
X176796285Y-153291550D01*
X176720095Y-153253454D01*
X176682000Y-153215359D01*
X176643904Y-153139169D01*
X176643904Y-152948692D01*
X176682000Y-152834407D01*
X177024857Y-152491550D02*
X177024857Y-152224883D01*
X177443904Y-152110597D02*
X177443904Y-152491550D01*
X176643904Y-152491550D01*
X176643904Y-152110597D01*
X177443904Y-151310597D02*
X177062952Y-151577264D01*
X177443904Y-151767740D02*
X176643904Y-151767740D01*
X176643904Y-151462978D01*
X176682000Y-151386788D01*
X176720095Y-151348692D01*
X176796285Y-151310597D01*
X176910571Y-151310597D01*
X176986761Y-151348692D01*
X177024857Y-151386788D01*
X177062952Y-151462978D01*
X177062952Y-151767740D01*
X176643904Y-151082026D02*
X177443904Y-150815359D01*
X176643904Y-150548692D01*
X176643904Y-150129645D02*
X176643904Y-149977264D01*
X176682000Y-149901073D01*
X176758190Y-149824883D01*
X176910571Y-149786788D01*
X177177238Y-149786788D01*
X177329619Y-149824883D01*
X177405809Y-149901073D01*
X177443904Y-149977264D01*
X177443904Y-150129645D01*
X177405809Y-150205835D01*
X177329619Y-150282026D01*
X177177238Y-150320121D01*
X176910571Y-150320121D01*
X176758190Y-150282026D01*
X176682000Y-150205835D01*
X176643904Y-150129645D01*
X178796904Y-155843930D02*
X178415952Y-156110597D01*
X178796904Y-156301073D02*
X177996904Y-156301073D01*
X177996904Y-155996311D01*
X178035000Y-155920121D01*
X178073095Y-155882026D01*
X178149285Y-155843930D01*
X178263571Y-155843930D01*
X178339761Y-155882026D01*
X178377857Y-155920121D01*
X178415952Y-155996311D01*
X178415952Y-156301073D01*
X178377857Y-155501073D02*
X178377857Y-155234407D01*
X178796904Y-155120121D02*
X178796904Y-155501073D01*
X177996904Y-155501073D01*
X177996904Y-155120121D01*
X177996904Y-154891550D02*
X178796904Y-154624883D01*
X177996904Y-154358216D01*
X178377857Y-154091550D02*
X178377857Y-153824883D01*
X178796904Y-153710597D02*
X178796904Y-154091550D01*
X177996904Y-154091550D01*
X177996904Y-153710597D01*
X178796904Y-152910597D02*
X178415952Y-153177264D01*
X178796904Y-153367740D02*
X177996904Y-153367740D01*
X177996904Y-153062978D01*
X178035000Y-152986788D01*
X178073095Y-152948692D01*
X178149285Y-152910597D01*
X178263571Y-152910597D01*
X178339761Y-152948692D01*
X178377857Y-152986788D01*
X178415952Y-153062978D01*
X178415952Y-153367740D01*
X178758809Y-152605835D02*
X178796904Y-152491550D01*
X178796904Y-152301073D01*
X178758809Y-152224883D01*
X178720714Y-152186788D01*
X178644523Y-152148692D01*
X178568333Y-152148692D01*
X178492142Y-152186788D01*
X178454047Y-152224883D01*
X178415952Y-152301073D01*
X178377857Y-152453454D01*
X178339761Y-152529645D01*
X178301666Y-152567740D01*
X178225476Y-152605835D01*
X178149285Y-152605835D01*
X178073095Y-152567740D01*
X178035000Y-152529645D01*
X177996904Y-152453454D01*
X177996904Y-152262978D01*
X178035000Y-152148692D01*
X178796904Y-151805835D02*
X177996904Y-151805835D01*
X178377857Y-151158216D02*
X178415952Y-151043930D01*
X178454047Y-151005835D01*
X178530238Y-150967740D01*
X178644523Y-150967740D01*
X178720714Y-151005835D01*
X178758809Y-151043930D01*
X178796904Y-151120121D01*
X178796904Y-151424883D01*
X177996904Y-151424883D01*
X177996904Y-151158216D01*
X178035000Y-151082026D01*
X178073095Y-151043930D01*
X178149285Y-151005835D01*
X178225476Y-151005835D01*
X178301666Y-151043930D01*
X178339761Y-151082026D01*
X178377857Y-151158216D01*
X178377857Y-151424883D01*
X178796904Y-150243930D02*
X178796904Y-150624883D01*
X177996904Y-150624883D01*
X178377857Y-149977264D02*
X178377857Y-149710597D01*
X178796904Y-149596311D02*
X178796904Y-149977264D01*
X177996904Y-149977264D01*
X177996904Y-149596311D01*
X180073714Y-155843930D02*
X180111809Y-155882026D01*
X180149904Y-155996311D01*
X180149904Y-156072502D01*
X180111809Y-156186788D01*
X180035619Y-156262978D01*
X179959428Y-156301073D01*
X179807047Y-156339169D01*
X179692761Y-156339169D01*
X179540380Y-156301073D01*
X179464190Y-156262978D01*
X179388000Y-156186788D01*
X179349904Y-156072502D01*
X179349904Y-155996311D01*
X179388000Y-155882026D01*
X179426095Y-155843930D01*
X180149904Y-155501073D02*
X179349904Y-155501073D01*
X179730857Y-155501073D02*
X179730857Y-155043930D01*
X180149904Y-155043930D02*
X179349904Y-155043930D01*
X179730857Y-154662978D02*
X179730857Y-154396311D01*
X180149904Y-154282026D02*
X180149904Y-154662978D01*
X179349904Y-154662978D01*
X179349904Y-154282026D01*
X180073714Y-153482026D02*
X180111809Y-153520121D01*
X180149904Y-153634407D01*
X180149904Y-153710597D01*
X180111809Y-153824883D01*
X180035619Y-153901073D01*
X179959428Y-153939169D01*
X179807047Y-153977264D01*
X179692761Y-153977264D01*
X179540380Y-153939169D01*
X179464190Y-153901073D01*
X179388000Y-153824883D01*
X179349904Y-153710597D01*
X179349904Y-153634407D01*
X179388000Y-153520121D01*
X179426095Y-153482026D01*
X180149904Y-153139169D02*
X179349904Y-153139169D01*
X180149904Y-152682026D02*
X179692761Y-153024883D01*
X179349904Y-152682026D02*
X179807047Y-153139169D01*
X180149904Y-151729645D02*
X179349904Y-151729645D01*
X179349904Y-151424883D01*
X179388000Y-151348692D01*
X179426095Y-151310597D01*
X179502285Y-151272502D01*
X179616571Y-151272502D01*
X179692761Y-151310597D01*
X179730857Y-151348692D01*
X179768952Y-151424883D01*
X179768952Y-151729645D01*
X179349904Y-150777264D02*
X179349904Y-150624883D01*
X179388000Y-150548692D01*
X179464190Y-150472502D01*
X179616571Y-150434407D01*
X179883238Y-150434407D01*
X180035619Y-150472502D01*
X180111809Y-150548692D01*
X180149904Y-150624883D01*
X180149904Y-150777264D01*
X180111809Y-150853454D01*
X180035619Y-150929645D01*
X179883238Y-150967740D01*
X179616571Y-150967740D01*
X179464190Y-150929645D01*
X179388000Y-150853454D01*
X179349904Y-150777264D01*
X180149904Y-149710597D02*
X180149904Y-150091550D01*
X179349904Y-150091550D01*
X179921333Y-149482026D02*
X179921333Y-149101073D01*
X180149904Y-149558216D02*
X179349904Y-149291550D01*
X180149904Y-149024883D01*
X180149904Y-148301073D02*
X179768952Y-148567740D01*
X180149904Y-148758216D02*
X179349904Y-148758216D01*
X179349904Y-148453454D01*
X179388000Y-148377264D01*
X179426095Y-148339169D01*
X179502285Y-148301073D01*
X179616571Y-148301073D01*
X179692761Y-148339169D01*
X179730857Y-148377264D01*
X179768952Y-148453454D01*
X179768952Y-148758216D01*
X180149904Y-147958216D02*
X179349904Y-147958216D01*
X179349904Y-147691550D02*
X179349904Y-147234407D01*
X180149904Y-147462978D02*
X179349904Y-147462978D01*
X179768952Y-146815359D02*
X180149904Y-146815359D01*
X179349904Y-147082026D02*
X179768952Y-146815359D01*
X179349904Y-146548692D01*
X173507476Y-150857000D02*
X173431285Y-150818904D01*
X173317000Y-150818904D01*
X173202714Y-150857000D01*
X173126523Y-150933190D01*
X173088428Y-151009380D01*
X173050333Y-151161761D01*
X173050333Y-151276047D01*
X173088428Y-151428428D01*
X173126523Y-151504619D01*
X173202714Y-151580809D01*
X173317000Y-151618904D01*
X173393190Y-151618904D01*
X173507476Y-151580809D01*
X173545571Y-151542714D01*
X173545571Y-151276047D01*
X173393190Y-151276047D01*
X173888428Y-151618904D02*
X173888428Y-150818904D01*
X174345571Y-151618904D01*
X174345571Y-150818904D01*
X174726523Y-151618904D02*
X174726523Y-150818904D01*
X174917000Y-150818904D01*
X175031285Y-150857000D01*
X175107476Y-150933190D01*
X175145571Y-151009380D01*
X175183666Y-151161761D01*
X175183666Y-151276047D01*
X175145571Y-151428428D01*
X175107476Y-151504619D01*
X175031285Y-151580809D01*
X174917000Y-151618904D01*
X174726523Y-151618904D01*
X163404523Y-161017000D02*
X163328333Y-160978904D01*
X163214047Y-160978904D01*
X163099761Y-161017000D01*
X163023571Y-161093190D01*
X162985476Y-161169380D01*
X162947380Y-161321761D01*
X162947380Y-161436047D01*
X162985476Y-161588428D01*
X163023571Y-161664619D01*
X163099761Y-161740809D01*
X163214047Y-161778904D01*
X163290238Y-161778904D01*
X163404523Y-161740809D01*
X163442619Y-161702714D01*
X163442619Y-161436047D01*
X163290238Y-161436047D01*
X162928333Y-159708904D02*
X163195000Y-160508904D01*
X163461666Y-159708904D01*
X163423571Y-159238904D02*
X162966428Y-159238904D01*
X163195000Y-159238904D02*
X163195000Y-158438904D01*
X163118809Y-158553190D01*
X163042619Y-158629380D01*
X162966428Y-158667476D01*
D11*
%TO.C,J1*%
X177153000Y-160167000D02*
X177153000Y-162517000D01*
X177153000Y-162517000D02*
X176403000Y-162517000D01*
X176403000Y-162517000D02*
X176403000Y-162717000D01*
X176403000Y-162717000D02*
X175603000Y-162717000D01*
X175603000Y-162717000D02*
X175603000Y-162517000D01*
X175603000Y-162517000D02*
X174753000Y-162517000D01*
X174753000Y-162517000D02*
X174753000Y-160167000D01*
X177153000Y-160167000D02*
X177153000Y-157817000D01*
X177153000Y-157817000D02*
X176403000Y-157817000D01*
X176403000Y-157817000D02*
X176403000Y-157617000D01*
X176403000Y-157617000D02*
X175603000Y-157617000D01*
X175603000Y-157617000D02*
X175603000Y-157817000D01*
X175603000Y-157817000D02*
X174753000Y-157817000D01*
X174753000Y-157817000D02*
X174753000Y-160167000D01*
%TO.C,J4*%
X172200000Y-160167000D02*
X172200000Y-162517000D01*
X172200000Y-162517000D02*
X171450000Y-162517000D01*
X171450000Y-162517000D02*
X171450000Y-162717000D01*
X171450000Y-162717000D02*
X170650000Y-162717000D01*
X170650000Y-162717000D02*
X170650000Y-162517000D01*
X170650000Y-162517000D02*
X169800000Y-162517000D01*
X169800000Y-162517000D02*
X169800000Y-160167000D01*
X172200000Y-160167000D02*
X172200000Y-157817000D01*
X172200000Y-157817000D02*
X171450000Y-157817000D01*
X171450000Y-157817000D02*
X171450000Y-157617000D01*
X171450000Y-157617000D02*
X170650000Y-157617000D01*
X170650000Y-157617000D02*
X170650000Y-157817000D01*
X170650000Y-157817000D02*
X169800000Y-157817000D01*
X169800000Y-157817000D02*
X169800000Y-160167000D01*
%TO.C,J3*%
X168644000Y-160167000D02*
X168644000Y-162517000D01*
X168644000Y-162517000D02*
X167894000Y-162517000D01*
X167894000Y-162517000D02*
X167894000Y-162717000D01*
X167894000Y-162717000D02*
X167094000Y-162717000D01*
X167094000Y-162717000D02*
X167094000Y-162517000D01*
X167094000Y-162517000D02*
X166244000Y-162517000D01*
X166244000Y-162517000D02*
X166244000Y-160167000D01*
X168644000Y-160167000D02*
X168644000Y-157817000D01*
X168644000Y-157817000D02*
X167894000Y-157817000D01*
X167894000Y-157817000D02*
X167894000Y-157617000D01*
X167894000Y-157617000D02*
X167094000Y-157617000D01*
X167094000Y-157617000D02*
X167094000Y-157817000D01*
X167094000Y-157817000D02*
X166244000Y-157817000D01*
X166244000Y-157817000D02*
X166244000Y-160167000D01*
%TO.C,J2*%
X165088000Y-160167000D02*
X165088000Y-162517000D01*
X165088000Y-162517000D02*
X164338000Y-162517000D01*
X164338000Y-162517000D02*
X164338000Y-162717000D01*
X164338000Y-162717000D02*
X163538000Y-162717000D01*
X163538000Y-162717000D02*
X163538000Y-162517000D01*
X163538000Y-162517000D02*
X162688000Y-162517000D01*
X162688000Y-162517000D02*
X162688000Y-160167000D01*
X165088000Y-160167000D02*
X165088000Y-157817000D01*
X165088000Y-157817000D02*
X164338000Y-157817000D01*
X164338000Y-157817000D02*
X164338000Y-157617000D01*
X164338000Y-157617000D02*
X163538000Y-157617000D01*
X163538000Y-157617000D02*
X163538000Y-157817000D01*
X163538000Y-157817000D02*
X162688000Y-157817000D01*
X162688000Y-157817000D02*
X162688000Y-160167000D01*
%TO.C,J6*%
X172100000Y-151597000D02*
X171500000Y-151297000D01*
X172100000Y-150997000D02*
X172100000Y-151597000D01*
X171500000Y-151297000D02*
X172100000Y-150997000D01*
X166800000Y-154047000D02*
X166800000Y-153547000D01*
X161300000Y-154047000D02*
X166800000Y-154047000D01*
X161300000Y-153547000D02*
X161300000Y-154047000D01*
X166800000Y-153547000D02*
X161300000Y-153547000D01*
X166800000Y-151547000D02*
X166800000Y-151047000D01*
X161300000Y-151547000D02*
X166800000Y-151547000D01*
X161300000Y-151047000D02*
X161300000Y-151547000D01*
X166800000Y-151047000D02*
X161300000Y-151047000D01*
X167910000Y-154937000D02*
X167910000Y-152547000D01*
X172410000Y-154937000D02*
X167910000Y-154937000D01*
X172410000Y-156357000D02*
X172410000Y-154937000D01*
X160690000Y-156357000D02*
X172410000Y-156357000D01*
X160690000Y-152547000D02*
X160690000Y-156357000D01*
X167910000Y-150157000D02*
X167910000Y-152547000D01*
X172410000Y-150157000D02*
X167910000Y-150157000D01*
X172410000Y-148737000D02*
X172410000Y-150157000D01*
X160690000Y-148737000D02*
X172410000Y-148737000D01*
X160690000Y-152547000D02*
X160690000Y-148737000D01*
%TD*%
M02*
