%TF.GenerationSoftware,KiCad,Pcbnew,(5.1.9)-1*%
%TF.CreationDate,2021-08-12T17:05:42+01:00*%
%TF.ProjectId,heli-servo-board,68656c69-2d73-4657-9276-6f2d626f6172,rev?*%
%TF.SameCoordinates,Original*%
%TF.FileFunction,Soldermask,Top*%
%TF.FilePolarity,Negative*%
%FSLAX46Y46*%
G04 Gerber Fmt 4.6, Leading zero omitted, Abs format (unit mm)*
G04 Created by KiCad (PCBNEW (5.1.9)-1) date 2021-08-12 17:05:42*
%MOMM*%
%LPD*%
G01*
G04 APERTURE LIST*
%ADD10O,1.750000X1.200000*%
%ADD11O,1.300000X0.800000*%
%ADD12O,2.000000X1.700000*%
%ADD13C,2.200000*%
G04 APERTURE END LIST*
D10*
%TO.C,REF\u002A\u002A*%
X164592000Y-153536400D03*
G36*
G01*
X163966600Y-150936400D02*
X165217400Y-150936400D01*
G75*
G02*
X165467000Y-151186000I0J-249600D01*
G01*
X165467000Y-151886800D01*
G75*
G02*
X165217400Y-152136400I-249600J0D01*
G01*
X163966600Y-152136400D01*
G75*
G02*
X163717000Y-151886800I0J249600D01*
G01*
X163717000Y-151186000D01*
G75*
G02*
X163966600Y-150936400I249600J0D01*
G01*
G37*
%TD*%
D11*
%TO.C,J1*%
X176403000Y-158917000D03*
X176403000Y-160167000D03*
G36*
G01*
X176853000Y-161817000D02*
X175953000Y-161817000D01*
G75*
G02*
X175753000Y-161617000I0J200000D01*
G01*
X175753000Y-161217000D01*
G75*
G02*
X175953000Y-161017000I200000J0D01*
G01*
X176853000Y-161017000D01*
G75*
G02*
X177053000Y-161217000I0J-200000D01*
G01*
X177053000Y-161617000D01*
G75*
G02*
X176853000Y-161817000I-200000J0D01*
G01*
G37*
%TD*%
%TO.C,J4*%
X171450000Y-158917000D03*
X171450000Y-160167000D03*
G36*
G01*
X171900000Y-161817000D02*
X171000000Y-161817000D01*
G75*
G02*
X170800000Y-161617000I0J200000D01*
G01*
X170800000Y-161217000D01*
G75*
G02*
X171000000Y-161017000I200000J0D01*
G01*
X171900000Y-161017000D01*
G75*
G02*
X172100000Y-161217000I0J-200000D01*
G01*
X172100000Y-161617000D01*
G75*
G02*
X171900000Y-161817000I-200000J0D01*
G01*
G37*
%TD*%
%TO.C,J3*%
X167894000Y-158917000D03*
X167894000Y-160167000D03*
G36*
G01*
X168344000Y-161817000D02*
X167444000Y-161817000D01*
G75*
G02*
X167244000Y-161617000I0J200000D01*
G01*
X167244000Y-161217000D01*
G75*
G02*
X167444000Y-161017000I200000J0D01*
G01*
X168344000Y-161017000D01*
G75*
G02*
X168544000Y-161217000I0J-200000D01*
G01*
X168544000Y-161617000D01*
G75*
G02*
X168344000Y-161817000I-200000J0D01*
G01*
G37*
%TD*%
%TO.C,J2*%
X164338000Y-158917000D03*
X164338000Y-160167000D03*
G36*
G01*
X164788000Y-161817000D02*
X163888000Y-161817000D01*
G75*
G02*
X163688000Y-161617000I0J200000D01*
G01*
X163688000Y-161217000D01*
G75*
G02*
X163888000Y-161017000I200000J0D01*
G01*
X164788000Y-161017000D01*
G75*
G02*
X164988000Y-161217000I0J-200000D01*
G01*
X164988000Y-161617000D01*
G75*
G02*
X164788000Y-161817000I-200000J0D01*
G01*
G37*
%TD*%
D12*
%TO.C,J6*%
X170000000Y-153797000D03*
G36*
G01*
X169250000Y-150447000D02*
X170750000Y-150447000D01*
G75*
G02*
X171000000Y-150697000I0J-250000D01*
G01*
X171000000Y-151897000D01*
G75*
G02*
X170750000Y-152147000I-250000J0D01*
G01*
X169250000Y-152147000D01*
G75*
G02*
X169000000Y-151897000I0J250000D01*
G01*
X169000000Y-150697000D01*
G75*
G02*
X169250000Y-150447000I250000J0D01*
G01*
G37*
%TD*%
%TO.C,J9*%
G36*
G01*
X173621000Y-161552000D02*
X175121000Y-161552000D01*
G75*
G02*
X175371000Y-161802000I0J-250000D01*
G01*
X175371000Y-162302000D01*
G75*
G02*
X175121000Y-162552000I-250000J0D01*
G01*
X173621000Y-162552000D01*
G75*
G02*
X173371000Y-162302000I0J250000D01*
G01*
X173371000Y-161802000D01*
G75*
G02*
X173621000Y-161552000I250000J0D01*
G01*
G37*
%TD*%
%TO.C,J8*%
G36*
G01*
X173621000Y-159647000D02*
X175121000Y-159647000D01*
G75*
G02*
X175371000Y-159897000I0J-250000D01*
G01*
X175371000Y-160397000D01*
G75*
G02*
X175121000Y-160647000I-250000J0D01*
G01*
X173621000Y-160647000D01*
G75*
G02*
X173371000Y-160397000I0J250000D01*
G01*
X173371000Y-159897000D01*
G75*
G02*
X173621000Y-159647000I250000J0D01*
G01*
G37*
%TD*%
%TO.C,J7*%
G36*
G01*
X173621000Y-157615000D02*
X175121000Y-157615000D01*
G75*
G02*
X175371000Y-157865000I0J-250000D01*
G01*
X175371000Y-158365000D01*
G75*
G02*
X175121000Y-158615000I-250000J0D01*
G01*
X173621000Y-158615000D01*
G75*
G02*
X173371000Y-158365000I0J250000D01*
G01*
X173371000Y-157865000D01*
G75*
G02*
X173621000Y-157615000I250000J0D01*
G01*
G37*
%TD*%
D13*
%TO.C,H4*%
X180000000Y-162000000D03*
%TD*%
%TO.C,H3*%
X180000000Y-142000000D03*
%TD*%
%TO.C,H2*%
X160000000Y-162000000D03*
%TD*%
%TO.C,H1*%
X160000000Y-142000000D03*
%TD*%
M02*
