%TF.GenerationSoftware,KiCad,Pcbnew,(5.1.9)-1*%
%TF.CreationDate,2021-08-13T00:28:10+01:00*%
%TF.ProjectId,heli-servo-board,68656c69-2d73-4657-9276-6f2d626f6172,rev?*%
%TF.SameCoordinates,Original*%
%TF.FileFunction,Soldermask,Bot*%
%TF.FilePolarity,Negative*%
%FSLAX46Y46*%
G04 Gerber Fmt 4.6, Leading zero omitted, Abs format (unit mm)*
G04 Created by KiCad (PCBNEW (5.1.9)-1) date 2021-08-13 00:28:10*
%MOMM*%
%LPD*%
G01*
G04 APERTURE LIST*
%ADD10O,1.750000X1.200000*%
%ADD11O,1.300000X0.800000*%
%ADD12O,2.000000X1.700000*%
%ADD13C,2.200000*%
G04 APERTURE END LIST*
D10*
%TO.C,REF\u002A\u002A*%
X162433000Y-153511000D03*
G36*
G01*
X161807600Y-150911000D02*
X163058400Y-150911000D01*
G75*
G02*
X163308000Y-151160600I0J-249600D01*
G01*
X163308000Y-151861400D01*
G75*
G02*
X163058400Y-152111000I-249600J0D01*
G01*
X161807600Y-152111000D01*
G75*
G02*
X161558000Y-151861400I0J249600D01*
G01*
X161558000Y-151160600D01*
G75*
G02*
X161807600Y-150911000I249600J0D01*
G01*
G37*
%TD*%
D11*
%TO.C,J1*%
X175895000Y-154980000D03*
X175895000Y-156230000D03*
G36*
G01*
X176345000Y-157880000D02*
X175445000Y-157880000D01*
G75*
G02*
X175245000Y-157680000I0J200000D01*
G01*
X175245000Y-157280000D01*
G75*
G02*
X175445000Y-157080000I200000J0D01*
G01*
X176345000Y-157080000D01*
G75*
G02*
X176545000Y-157280000I0J-200000D01*
G01*
X176545000Y-157680000D01*
G75*
G02*
X176345000Y-157880000I-200000J0D01*
G01*
G37*
%TD*%
%TO.C,J4*%
X171450000Y-158917000D03*
X171450000Y-160167000D03*
G36*
G01*
X171900000Y-161817000D02*
X171000000Y-161817000D01*
G75*
G02*
X170800000Y-161617000I0J200000D01*
G01*
X170800000Y-161217000D01*
G75*
G02*
X171000000Y-161017000I200000J0D01*
G01*
X171900000Y-161017000D01*
G75*
G02*
X172100000Y-161217000I0J-200000D01*
G01*
X172100000Y-161617000D01*
G75*
G02*
X171900000Y-161817000I-200000J0D01*
G01*
G37*
%TD*%
%TO.C,J3*%
X167894000Y-158917000D03*
X167894000Y-160167000D03*
G36*
G01*
X168344000Y-161817000D02*
X167444000Y-161817000D01*
G75*
G02*
X167244000Y-161617000I0J200000D01*
G01*
X167244000Y-161217000D01*
G75*
G02*
X167444000Y-161017000I200000J0D01*
G01*
X168344000Y-161017000D01*
G75*
G02*
X168544000Y-161217000I0J-200000D01*
G01*
X168544000Y-161617000D01*
G75*
G02*
X168344000Y-161817000I-200000J0D01*
G01*
G37*
%TD*%
%TO.C,J2*%
X164338000Y-158917000D03*
X164338000Y-160167000D03*
G36*
G01*
X164788000Y-161817000D02*
X163888000Y-161817000D01*
G75*
G02*
X163688000Y-161617000I0J200000D01*
G01*
X163688000Y-161217000D01*
G75*
G02*
X163888000Y-161017000I200000J0D01*
G01*
X164788000Y-161017000D01*
G75*
G02*
X164988000Y-161217000I0J-200000D01*
G01*
X164988000Y-161617000D01*
G75*
G02*
X164788000Y-161817000I-200000J0D01*
G01*
G37*
%TD*%
D12*
%TO.C,J6*%
X169164000Y-153797000D03*
G36*
G01*
X168414000Y-150447000D02*
X169914000Y-150447000D01*
G75*
G02*
X170164000Y-150697000I0J-250000D01*
G01*
X170164000Y-151897000D01*
G75*
G02*
X169914000Y-152147000I-250000J0D01*
G01*
X168414000Y-152147000D01*
G75*
G02*
X168164000Y-151897000I0J250000D01*
G01*
X168164000Y-150697000D01*
G75*
G02*
X168414000Y-150447000I250000J0D01*
G01*
G37*
%TD*%
D13*
%TO.C,H4*%
X176000000Y-162000000D03*
%TD*%
%TO.C,H3*%
X176000000Y-142000000D03*
%TD*%
%TO.C,H2*%
X160000000Y-162000000D03*
%TD*%
%TO.C,H1*%
X160000000Y-142000000D03*
%TD*%
M02*
