%TF.GenerationSoftware,KiCad,Pcbnew,(5.1.9)-1*%
%TF.CreationDate,2021-08-13T00:28:10+01:00*%
%TF.ProjectId,heli-servo-board,68656c69-2d73-4657-9276-6f2d626f6172,rev?*%
%TF.SameCoordinates,Original*%
%TF.FileFunction,Legend,Bot*%
%TF.FilePolarity,Positive*%
%FSLAX46Y46*%
G04 Gerber Fmt 4.6, Leading zero omitted, Abs format (unit mm)*
G04 Created by KiCad (PCBNEW (5.1.9)-1) date 2021-08-13 00:28:10*
%MOMM*%
%LPD*%
G01*
G04 APERTURE LIST*
%ADD10C,0.153000*%
%ADD11C,0.120000*%
G04 APERTURE END LIST*
D10*
X162864761Y-160204142D02*
X162255238Y-160204142D01*
X162560000Y-160508904D02*
X162560000Y-159899380D01*
X162864761Y-161474142D02*
X162255238Y-161474142D01*
X162331428Y-159238904D02*
X162788571Y-159238904D01*
X162560000Y-159238904D02*
X162560000Y-158438904D01*
X162636190Y-158553190D01*
X162712380Y-158629380D01*
X162788571Y-158667476D01*
D11*
%TO.C,REF\u002A\u002A*%
X160623000Y-149451000D02*
X165343000Y-149451000D01*
X165343000Y-149451000D02*
X165343000Y-155571000D01*
X165343000Y-155571000D02*
X160623000Y-155571000D01*
X160623000Y-155571000D02*
X160623000Y-149451000D01*
X160623000Y-151211000D02*
X160423000Y-151211000D01*
X160423000Y-151211000D02*
X160423000Y-150911000D01*
X160423000Y-150911000D02*
X160623000Y-150911000D01*
X160523000Y-151211000D02*
X160523000Y-150911000D01*
X160623000Y-152011000D02*
X161233000Y-152011000D01*
X161233000Y-152011000D02*
X161233000Y-150061000D01*
X161233000Y-150061000D02*
X164733000Y-150061000D01*
X164733000Y-150061000D02*
X164733000Y-154961000D01*
X164733000Y-154961000D02*
X161233000Y-154961000D01*
X161233000Y-154961000D02*
X161233000Y-153011000D01*
X161233000Y-153011000D02*
X160623000Y-153011000D01*
X161933000Y-149451000D02*
X161933000Y-150061000D01*
X163233000Y-149451000D02*
X163233000Y-150061000D01*
X161933000Y-155571000D02*
X161933000Y-154961000D01*
X163233000Y-155571000D02*
X163233000Y-154961000D01*
X164733000Y-152411000D02*
X164233000Y-152411000D01*
X164233000Y-152411000D02*
X164233000Y-152611000D01*
X164233000Y-152611000D02*
X164733000Y-152611000D01*
X164733000Y-152511000D02*
X164233000Y-152511000D01*
X160323000Y-150401000D02*
X160323000Y-149151000D01*
X160323000Y-149151000D02*
X161573000Y-149151000D01*
%TD*%
M02*
